<?xml version="1.0" standalone="no"?>
<!DOCTYPE svg PUBLIC "-//W3C//DTD SVG 20010904//EN"
 "http://www.w3.org/TR/2001/REC-SVG-20010904/DTD/svg10.dtd">
<svg version="1.0" xmlns="http://www.w3.org/2000/svg"
 width="300.000000pt" height="300.000000pt" viewBox="0 0 300.000000 300.000000"
 preserveAspectRatio="xMidYMid meet">
<metadata>
Created by potrace 1.14, written by Peter Selinger 2001-2017
</metadata>
<g transform="translate(0.000000,300.000000) scale(0.100000,-0.100000)"
fill="#000000" stroke="none">
<path d="M205 2982 c-99 -34 -174 -117 -195 -215 -8 -37 -10 -413 -8 -1297 l3
-1245 21 -46 c28 -60 93 -125 153 -153 l46 -21 1275 0 1275 0 46 21 c60 28
125 93 153 153 l21 46 0 1275 0 1275 -21 46 c-28 60 -93 125 -153 153 l-46 21
-1260 2 c-1175 2 -1263 1 -1310 -15z m1076 -598 c64 -19 141 -57 187 -92 l33
-25 27 21 c41 33 131 78 191 96 69 20 199 21 275 1 165 -43 304 -175 372 -350
18 -47 19 -88 22 -742 l3 -693 -180 0 -181 0 -2 669 c-3 658 -3 670 -24 697
-46 62 -117 90 -188 74 -54 -12 -87 -38 -113 -90 l-23 -44 0 -653 0 -653 -180
0 -180 0 0 653 c0 619 -1 654 -19 694 -61 133 -269 127 -320 -10 -7 -19 -11
-243 -11 -683 l0 -654 -180 0 -181 0 3 693 c4 772 -1 719 75 849 65 112 193
209 315 242 73 20 212 20 279 0z"/>
</g>
</svg>
