<?xml version="1.0" encoding="UTF-8" standalone="no"?>
<!DOCTYPE svg PUBLIC "-//W3C//DTD SVG 1.1//EN" "http://www.w3.org/Graphics/SVG/1.1/DTD/svg11.dtd">
<svg width="100%" height="100%" viewBox="0 0 1080 1080" version="1.1" xmlns="http://www.w3.org/2000/svg" xmlns:xlink="http://www.w3.org/1999/xlink" xml:space="preserve" xmlns:serif="http://www.serif.com/" style="fill-rule:evenodd;clip-rule:evenodd;stroke-linecap:round;stroke-linejoin:round;stroke-miterlimit:1.5;">
    <g transform="matrix(4.52741,0,0,2.91637,-1059.02,-1017.84)">
        <path d="M456.648,415.151C456.648,404.866 451.27,396.516 444.644,396.516L282.302,396.516C275.676,396.516 270.298,404.866 270.298,415.151L293.781,564.232C293.781,574.517 299.16,582.867 305.785,582.867L427.871,582.867C434.496,582.867 439.874,574.517 439.874,564.232L456.648,415.151Z"/>
    </g>
    <g transform="matrix(1.46962,-0.383523,1.06234,4.07077,-512.715,-1118.52)">
        <path d="M262.26,301.779C262.26,300.135 258.562,298.799 254.006,298.799L187.974,298.799C183.418,298.799 179.72,300.135 179.72,301.779L179.72,502.484C179.72,504.129 183.418,505.464 187.974,505.464L254.006,505.464C258.562,505.464 262.26,504.129 262.26,502.484L262.26,301.779Z"/>
    </g>
    <g transform="matrix(-1.50602e-16,1.28905,-3.13588,-6.48952e-16,1852.4,544.549)">
        <path d="M262.26,302.192C262.26,300.32 258.562,298.799 254.006,298.799L187.974,298.799C183.418,298.799 179.72,300.32 179.72,302.192L179.72,502.071C179.72,503.944 183.418,505.464 187.974,505.464L254.006,505.464C258.562,505.464 262.26,503.944 262.26,502.071L262.26,302.192Z"/>
    </g>
    <g transform="matrix(1.99502,0,0,1.99502,-407.552,-862.892)">
        <circle cx="385.511" cy="930.352" r="43.519"/>
    </g>
    <g transform="matrix(1.99502,0,0,1.99502,59.4818,-862.892)">
        <circle cx="385.511" cy="930.352" r="43.519"/>
    </g>
    <g transform="matrix(0.782706,0,0,0.782706,84.5454,81.6937)">
        <path d="M647.525,213.661L787.165,352.519L507.884,352.519L647.525,213.661Z" style="fill:white;stroke:white;stroke-width:153.31px;"/>
    </g>
    <g transform="matrix(2.60307,0,0,1.83491,-882.484,-420.45)">
        <path d="M592.393,457.049C592.393,436.538 580.655,419.885 566.196,419.885C551.738,419.885 540,436.538 540,457.049L540,536.329C540,556.84 551.738,573.492 566.196,573.492C580.655,573.492 592.393,556.84 592.393,536.329L592.393,457.049Z" style="fill:white;"/>
    </g>
</svg>
