<?xml version="1.0" encoding="UTF-8" standalone="no"?>
<!DOCTYPE svg PUBLIC "-//W3C//DTD SVG 1.1//EN" "http://www.w3.org/Graphics/SVG/1.1/DTD/svg11.dtd">
<svg width="100%" height="100%" viewBox="0 0 1080 1080" version="1.1" xmlns="http://www.w3.org/2000/svg" xmlns:xlink="http://www.w3.org/1999/xlink" xml:space="preserve" xmlns:serif="http://www.serif.com/" style="fill-rule:evenodd;clip-rule:evenodd;stroke-linecap:round;stroke-linejoin:round;stroke-miterlimit:1.5;">
    <path d="M231.649,507.04C228.921,487.588 227.509,467.684 227.509,447.452C227.509,212.201 418.503,21.206 653.754,21.206C889.006,21.206 1080,212.201 1080,447.452C1080,682.703 889.006,873.698 653.754,873.698C640.439,873.698 627.266,873.086 614.285,871.891L403.973,543.931C381.155,508.349 341.793,486.83 299.523,486.83C275.04,486.83 251.532,494.049 231.649,507.04Z"/>
    <g transform="matrix(0.751615,0,0,0.751615,30.1423,195.059)">
        <path d="M358.402,596.164L647.73,1047.34L69.074,1047.34L358.402,596.164Z" style="stroke:black;stroke-width:200px;"/>
    </g>
    <g transform="matrix(0.854685,0,0,1.23076,25.2507,-215.411)">
        <path d="M378.453,742.627C378.453,720.571 352.666,702.663 320.904,702.663C289.142,702.663 263.356,720.571 263.356,742.627L263.356,841.64C263.356,863.696 289.142,881.603 320.904,881.603C352.666,881.603 378.453,863.696 378.453,841.64L378.453,742.627Z" style="fill:white;"/>
    </g>
    <g transform="matrix(0.854685,0,0,2.16999,379.482,-1416.43)">
        <path d="M378.453,725.33C378.453,712.82 352.666,702.663 320.904,702.663C289.142,702.663 263.356,712.82 263.356,725.33L263.356,858.937C263.356,871.447 289.142,881.603 320.904,881.603C352.666,881.603 378.453,871.447 378.453,858.937L378.453,725.33Z" style="fill:white;"/>
    </g>
    <g transform="matrix(5.86809e-17,0.854685,-2.16999,1.32585e-16,2517.64,173.18)">
        <path d="M378.453,725.33C378.453,712.82 352.666,702.663 320.904,702.663C289.142,702.663 263.356,712.82 263.356,725.33L263.356,858.937C263.356,871.447 289.142,881.603 320.904,881.603C352.666,881.603 378.453,871.447 378.453,858.937L378.453,725.33Z" style="fill:white;"/>
    </g>
    <g transform="matrix(0.854685,0,0,0.57618,25.2507,512.831)">
        <path d="M378.453,788.029C378.453,740.914 352.666,702.663 320.904,702.663C289.142,702.663 263.356,740.914 263.356,788.029L263.356,796.238C263.356,843.352 289.142,881.603 320.904,881.603C352.666,881.603 378.453,843.352 378.453,796.238L378.453,788.029Z" style="fill:white;"/>
    </g>
</svg>
