<?xml version="1.0" encoding="UTF-8" standalone="no"?>
<!DOCTYPE svg PUBLIC "-//W3C//DTD SVG 1.1//EN" "http://www.w3.org/Graphics/SVG/1.1/DTD/svg11.dtd">
<svg width="100%" height="100%" viewBox="0 0 1080 1080" version="1.1" xmlns="http://www.w3.org/2000/svg" xmlns:xlink="http://www.w3.org/1999/xlink" xml:space="preserve" xmlns:serif="http://www.serif.com/" style="fill-rule:evenodd;clip-rule:evenodd;stroke-linejoin:round;stroke-miterlimit:2;">
    <g transform="matrix(2.26406,0,0,2.26406,-657.657,-369.195)">
        <path d="M759.096,355.555C759.096,253.954 676.609,171.466 575.008,171.466L482.964,171.466C381.363,171.466 298.875,253.954 298.875,355.555L298.875,447.599C298.875,549.2 381.363,631.687 482.964,631.687L575.008,631.687C676.609,631.687 759.096,549.2 759.096,447.599L759.096,355.555Z"/>
    </g>
    <g transform="matrix(1.9102,0,0,1.9102,-288.485,-431.641)">
        <g transform="matrix(498.698,0,0,498.698,280.871,689.438)">
            <path d="M0.191,-0.211L0.22,-0.402L0.285,-0.402C0.323,-0.402 0.355,-0.412 0.381,-0.433C0.406,-0.453 0.422,-0.48 0.428,-0.515C0.433,-0.55 0.425,-0.577 0.406,-0.598C0.387,-0.619 0.358,-0.629 0.32,-0.629L0.183,-0.629L0.2,-0.73L0.334,-0.73C0.405,-0.73 0.459,-0.711 0.496,-0.672C0.533,-0.632 0.546,-0.58 0.536,-0.515C0.529,-0.476 0.515,-0.441 0.494,-0.41C0.473,-0.379 0.446,-0.355 0.414,-0.338C0.382,-0.32 0.346,-0.31 0.307,-0.309L0.292,-0.211L0.191,-0.211ZM0.192,0.005C0.173,0.005 0.158,-0.001 0.148,-0.013C0.138,-0.024 0.135,-0.039 0.138,-0.058C0.141,-0.077 0.149,-0.092 0.163,-0.103C0.176,-0.115 0.193,-0.121 0.212,-0.121L0.242,-0.121C0.262,-0.121 0.277,-0.115 0.286,-0.103C0.296,-0.092 0.3,-0.077 0.297,-0.059C0.294,-0.04 0.285,-0.025 0.271,-0.013C0.257,-0.001 0.24,0.005 0.221,0.005L0.192,0.005Z" style="fill:white;fill-rule:nonzero;"/>
        </g>
    </g>
</svg>
