<?xml version="1.0" encoding="UTF-8" standalone="no"?>
<!DOCTYPE svg PUBLIC "-//W3C//DTD SVG 1.1//EN" "http://www.w3.org/Graphics/SVG/1.1/DTD/svg11.dtd">
<svg width="100%" height="100%" viewBox="0 0 1080 1080" version="1.1" xmlns="http://www.w3.org/2000/svg" xmlns:xlink="http://www.w3.org/1999/xlink" xml:space="preserve" xmlns:serif="http://www.serif.com/" style="fill-rule:evenodd;clip-rule:evenodd;stroke-linecap:round;stroke-linejoin:round;stroke-miterlimit:1.5;">
    <g transform="matrix(1.36425,0,0,1.36425,-278.729,-270.2)">
        <path d="M865.667,456.767C865.667,427.457 841.871,403.66 812.56,403.66L387.705,403.66C358.394,403.66 334.598,427.457 334.598,456.767L334.598,881.623C334.598,910.933 358.394,934.73 387.705,934.73L812.56,934.73C841.871,934.73 865.667,910.933 865.667,881.623L865.667,456.767Z"/>
        <clipPath id="_clip1">
            <path d="M865.667,456.767C865.667,427.457 841.871,403.66 812.56,403.66L387.705,403.66C358.394,403.66 334.598,427.457 334.598,456.767L334.598,881.623C334.598,910.933 358.394,934.73 387.705,934.73L812.56,934.73C841.871,934.73 865.667,910.933 865.667,881.623L865.667,456.767Z"/>
        </clipPath>
        <g clip-path="url(#_clip1)">
            <g transform="matrix(1.89004,0,0,1.10068,-619.329,-126.389)">
                <path d="M718.142,737.401C718.142,729.35 714.335,722.813 709.647,722.813L580.763,722.813C576.075,722.813 572.268,729.35 572.268,737.401L572.268,854.1C572.268,862.151 576.075,868.687 580.763,868.687L709.647,868.687C714.335,868.687 718.142,862.151 718.142,854.1L718.142,737.401Z" style="fill:white;"/>
            </g>
        </g>
    </g>
    <g transform="matrix(2.01354,0,0,1.36425,-701.957,-131.309)">
        <path d="M616.803,151.224L839.471,438.192L394.135,438.192L616.803,151.224Z" style="stroke:black;stroke-width:58.15px;"/>
    </g>
</svg>
