<?xml version="1.0" encoding="UTF-8" standalone="no"?>
<!DOCTYPE svg PUBLIC "-//W3C//DTD SVG 1.1//EN" "http://www.w3.org/Graphics/SVG/1.1/DTD/svg11.dtd">
<svg width="100%" height="100%" viewBox="0 0 1080 1080" version="1.1" xmlns="http://www.w3.org/2000/svg" xmlns:xlink="http://www.w3.org/1999/xlink" xml:space="preserve" xmlns:serif="http://www.serif.com/" style="fill-rule:evenodd;clip-rule:evenodd;stroke-linejoin:round;stroke-miterlimit:2;">
    <g transform="matrix(1.25995,0,0,1.25995,-157.515,-227.937)">
        <path d="M928.627,309.476C928.627,268.08 895.019,234.472 853.623,234.472L253.584,234.472C212.188,234.472 178.579,268.08 178.579,309.476L178.579,909.515C178.579,950.911 212.188,984.52 253.584,984.52L853.623,984.52C895.019,984.52 928.627,950.911 928.627,909.515L928.627,309.476Z"/>
        <clipPath id="_clip1">
            <path d="M928.627,309.476C928.627,268.08 895.019,234.472 853.623,234.472L253.584,234.472C212.188,234.472 178.579,268.08 178.579,309.476L178.579,909.515C178.579,950.911 212.188,984.52 253.584,984.52L853.623,984.52C895.019,984.52 928.627,950.911 928.627,909.515L928.627,309.476Z"/>
        </clipPath>
        <g clip-path="url(#_clip1)">
            <g transform="matrix(2.80583,0,0,0.996937,-905.287,-22.9831)">
                <path d="M567.453,191.715C567.453,176.957 563.195,164.976 557.952,164.976L481.948,164.976C476.704,164.976 472.447,176.957 472.447,191.715L472.447,476.893C472.447,491.65 476.704,503.632 481.948,503.632L557.952,503.632C563.195,503.632 567.453,491.65 567.453,476.893L567.453,191.715Z" style="fill:white;"/>
            </g>
            <g transform="matrix(1.42996,0,0,0.836198,-189.905,3.53512)">
                <path d="M567.453,181.223C567.453,172.256 563.195,164.976 557.952,164.976L481.948,164.976C476.704,164.976 472.447,172.256 472.447,181.223L472.447,487.385C472.447,496.352 476.704,503.632 481.948,503.632L557.952,503.632C563.195,503.632 567.453,496.352 567.453,487.385L567.453,181.223Z"/>
            </g>
            <g transform="matrix(5.63439e-17,0.920166,-2.79161,1.70937e-16,1486.85,216.643)">
                <path d="M567.453,172.805C567.453,168.484 556.81,164.976 543.701,164.976L496.198,164.976C483.09,164.976 472.447,168.484 472.447,172.805L472.447,495.803C472.447,500.124 483.09,503.632 496.198,503.632L543.701,503.632C556.81,503.632 567.453,500.124 567.453,495.803L567.453,172.805Z" style="fill:white;"/>
            </g>
        </g>
    </g>
</svg>
