<?xml version="1.0" encoding="UTF-8" standalone="no"?>
<!DOCTYPE svg PUBLIC "-//W3C//DTD SVG 1.1//EN" "http://www.w3.org/Graphics/SVG/1.1/DTD/svg11.dtd">
<svg width="100%" height="100%" viewBox="0 0 1080 1080" version="1.1" xmlns="http://www.w3.org/2000/svg" xmlns:xlink="http://www.w3.org/1999/xlink" xml:space="preserve" xmlns:serif="http://www.serif.com/" style="fill-rule:evenodd;clip-rule:evenodd;stroke-linecap:round;stroke-miterlimit:10;">
    <g transform="matrix(3.0872,3.0872,-3.0872,3.0872,968.953,-1028.73)">
        <path d="M280.599,265.942L242.199,227.542L126.997,227.542L88.596,265.942L88.596,381.145L126.997,419.545L242.199,419.545L280.599,381.145L280.599,265.942Z" style="fill:rgb(238,157,34);"/>
    </g>
    <g transform="matrix(3.0872,3.0872,-3.0872,3.0872,968.953,-1028.73)">
        <path d="M286.759,265.942C286.759,264.309 286.11,262.742 284.955,261.587L246.554,223.186C245.399,222.031 243.832,221.382 242.199,221.382L126.997,221.382C125.363,221.382 123.796,222.031 122.641,223.186L84.241,261.587C83.085,262.742 82.437,264.309 82.437,265.942L82.437,381.145C82.437,382.778 83.085,384.345 84.241,385.5L122.641,423.901C123.796,425.056 125.363,425.705 126.997,425.705L242.199,425.705C243.832,425.705 245.399,425.056 246.554,423.901L284.955,385.5C286.11,384.345 286.759,382.778 286.759,381.145L286.759,265.942ZM274.44,268.494L274.44,378.593C274.44,378.593 247.016,406.018 239.647,413.386C239.647,413.386 146.28,413.386 129.548,413.386C129.548,413.386 102.124,385.962 94.755,378.593C94.755,378.593 94.755,268.494 94.755,268.494C94.755,268.494 129.548,233.701 129.548,233.701C129.548,233.701 239.647,233.701 239.647,233.701C239.647,233.701 274.44,268.494 274.44,268.494L274.44,268.494Z" style="fill:rgb(238,157,34);"/>
    </g>
    <g transform="matrix(1,0,0,1.05671,0,-30.6223)">
        <rect x="421.449" y="65.798" width="237.101" height="948.405" style="fill:rgb(204,126,7);"/>
    </g>
    <g transform="matrix(1.05506,0,0,1.46193,-29.7299,-245.464)">
        <rect x="65.055" y="456.186" width="949.891" height="167.628" style="fill:rgb(36,36,36);"/>
    </g>
    <g transform="matrix(0.918304,0,0,0.918304,-5.77733,64.8629)">
        <text x="95.424px" y="574.992px" style="font-family:'Axiforma-Bold', 'Axiforma';font-weight:700;font-size:143.923px;fill:white;">MAKER<tspan x="619.303px 706.52px 791.29px 887.431px " y="574.992px 574.992px 574.992px 574.992px ">SPAC</tspan>E</text>
    </g>
    <g id="Various-Decor" serif:id="Various Decor" transform="matrix(2.12257,0,0,2.12257,-300.167,15.6937)">
        <g transform="matrix(0.574054,0,0,0.574054,269.702,-46.34)">
            <circle cx="63.2" cy="356.5" r="24.4" style="fill:rgb(36,36,36);"/>
        </g>
        <path d="M305.9,152.9L305.9,163.7" style="fill:none;fill-rule:nonzero;stroke:rgb(238,157,34);stroke-width:4px;"/>
        <path d="M300.5,158.3L311.3,158.3" style="fill:none;fill-rule:nonzero;stroke:rgb(238,157,34);stroke-width:4px;"/>
    </g>
    <g id="Wrenches">
        <g transform="matrix(-0.154505,0,0,0.154505,882.769,726.177)">
            <g transform="matrix(0.707107,-0.707107,0.707107,0.707107,-393.783,369.892)">
                <path d="M632.131,270.039C667.76,297.617 690.713,340.792 690.713,389.287C690.713,472.468 623.181,540 540,540C456.819,540 389.287,472.468 389.287,389.287C389.287,340.792 412.24,297.617 447.869,270.039L447.869,407.499L540,460.691L632.131,407.499L632.131,270.039Z" style="fill:rgb(36,36,36);stroke:rgb(36,36,36);stroke-width:27.34px;stroke-linejoin:round;stroke-miterlimit:1.5;"/>
            </g>
            <g transform="matrix(-0.707107,0.707107,-0.707107,-0.707107,1473.78,710.108)">
                <path d="M632.131,270.039C667.76,297.617 690.713,340.792 690.713,389.287C690.713,472.468 623.181,540 540,540C456.819,540 389.287,472.468 389.287,389.287C389.287,340.792 412.24,297.617 447.869,270.039L447.869,407.499L540,460.691L632.131,407.499L632.131,270.039Z" style="fill:rgb(36,36,36);stroke:rgb(36,36,36);stroke-width:27.34px;stroke-linejoin:round;stroke-miterlimit:1.5;"/>
            </g>
            <g transform="matrix(0.707107,-0.707107,2.93345,2.93345,-1539.51,-709.824)">
                <rect x="513.266" y="497.76" width="146.825" height="146.825" style="fill:rgb(36,36,36);stroke:rgb(36,36,36);stroke-width:9.06px;stroke-linejoin:round;stroke-miterlimit:1.5;"/>
            </g>
        </g>
        <g transform="matrix(-0.154505,0,0,0.154505,362.437,195.975)">
            <g transform="matrix(0.707107,-0.707107,0.707107,0.707107,-393.783,369.892)">
                <path d="M632.131,270.039C667.76,297.617 690.713,340.792 690.713,389.287C690.713,472.468 623.181,540 540,540C456.819,540 389.287,472.468 389.287,389.287C389.287,340.792 412.24,297.617 447.869,270.039L447.869,407.499L540,460.691L632.131,407.499L632.131,270.039Z" style="fill:rgb(36,36,36);stroke:rgb(36,36,36);stroke-width:27.34px;stroke-linejoin:round;stroke-miterlimit:1.5;"/>
            </g>
            <g transform="matrix(-0.707107,0.707107,-0.707107,-0.707107,1473.78,710.108)">
                <path d="M632.131,270.039C667.76,297.617 690.713,340.792 690.713,389.287C690.713,472.468 623.181,540 540,540C456.819,540 389.287,472.468 389.287,389.287C389.287,340.792 412.24,297.617 447.869,270.039L447.869,407.499L540,460.691L632.131,407.499L632.131,270.039Z" style="fill:rgb(36,36,36);stroke:rgb(36,36,36);stroke-width:27.34px;stroke-linejoin:round;stroke-miterlimit:1.5;"/>
            </g>
            <g transform="matrix(0.707107,-0.707107,2.93345,2.93345,-1539.51,-709.824)">
                <rect x="513.266" y="497.76" width="146.825" height="146.825" style="fill:rgb(36,36,36);stroke:rgb(36,36,36);stroke-width:9.06px;stroke-linejoin:round;stroke-miterlimit:1.5;"/>
            </g>
        </g>
    </g>
    <g transform="matrix(1.23228e-17,0.201247,-0.201247,1.23228e-17,637.052,-17.1651)">
        <g id="Screwdrivers">
            <g>
                <g transform="matrix(1,0,0,1.6611,461.99,-580.621)">
                    <path d="M263.322,690.677C263.322,677.054 244.951,665.994 222.322,665.994L140.323,665.994C117.695,665.994 99.324,677.054 99.324,690.677L99.324,837.778C99.324,851.4 117.695,862.46 140.323,862.46L222.322,862.46C244.951,862.46 263.322,851.4 263.322,837.778L263.322,690.677Z" style="fill:rgb(36,36,36);stroke:rgb(36,36,36);stroke-width:15.97px;stroke-linejoin:round;stroke-miterlimit:1.5;"/>
                </g>
                <g transform="matrix(1,0,0,0.742766,461.99,4.69894)">
                    <path d="M160.42,238.714L169.718,238.714C163.314,238.714 158.114,243.914 158.114,250.319L158.114,609.068C158.114,615.472 163.314,620.672 169.718,620.672L192.927,620.672C199.332,620.672 204.532,615.472 204.532,609.068L204.532,250.319C204.532,243.914 199.332,238.714 192.927,238.714L202.226,238.714C213.606,238.714 222.845,229.475 222.845,218.095L222.845,176.857C222.845,165.476 213.606,156.237 202.226,156.237L160.42,156.237C149.04,156.237 139.801,165.476 139.801,176.857L139.801,218.095C139.801,229.475 149.04,238.714 160.42,238.714Z" style="fill:rgb(36,36,36);stroke:rgb(36,36,36);stroke-width:24.86px;stroke-linejoin:round;stroke-miterlimit:1.5;"/>
                </g>
            </g>
        </g>
    </g>
    <g transform="matrix(1.23228e-17,-0.201247,0.201247,1.23228e-17,442.134,1097.17)">
        <g id="Screwdrivers1" serif:id="Screwdrivers">
            <g>
                <g transform="matrix(1,0,0,1.6611,461.99,-580.621)">
                    <path d="M263.322,690.677C263.322,677.054 244.951,665.994 222.322,665.994L140.323,665.994C117.695,665.994 99.324,677.054 99.324,690.677L99.324,837.778C99.324,851.4 117.695,862.46 140.323,862.46L222.322,862.46C244.951,862.46 263.322,851.4 263.322,837.778L263.322,690.677Z" style="fill:rgb(36,36,36);stroke:rgb(36,36,36);stroke-width:15.97px;stroke-linejoin:round;stroke-miterlimit:1.5;"/>
                </g>
                <g transform="matrix(1,0,0,0.742766,461.99,4.69894)">
                    <path d="M160.42,238.714L169.718,238.714C163.314,238.714 158.114,243.914 158.114,250.319L158.114,609.068C158.114,615.472 163.314,620.672 169.718,620.672L192.927,620.672C199.332,620.672 204.532,615.472 204.532,609.068L204.532,250.319C204.532,243.914 199.332,238.714 192.927,238.714L202.226,238.714C213.606,238.714 222.845,229.475 222.845,218.095L222.845,176.857C222.845,165.476 213.606,156.237 202.226,156.237L160.42,156.237C149.04,156.237 139.801,165.476 139.801,176.857L139.801,218.095C139.801,229.475 149.04,238.714 160.42,238.714Z" style="fill:rgb(36,36,36);stroke:rgb(36,36,36);stroke-width:24.86px;stroke-linejoin:round;stroke-miterlimit:1.5;"/>
                </g>
            </g>
        </g>
    </g>
    <g id="_3D-Printer" serif:id="3D Printer" transform="matrix(1,0,0,1,0,-8.54529)">
        <path d="M541.4,220.044L541.4,222.512C541.4,223.285 540.773,223.913 540,223.913C539.227,223.913 538.6,223.285 538.6,222.512L538.6,220.044L534.527,220.044C534.032,220.044 533.629,219.641 533.629,219.146L533.629,214.063L530.544,214.063C529.24,214.063 528.18,213.003 528.18,211.699L528.18,202.243L490.144,202.243L490.144,265.854C490.144,271.357 494.612,275.825 500.115,275.825L504.351,275.825C505.953,273.802 508.43,272.503 511.208,272.503L565.197,272.503C567.975,272.503 570.452,273.802 572.053,275.825L579.885,275.825C585.388,275.825 589.856,271.357 589.856,265.854L589.856,202.243L551.82,202.243L551.82,211.699C551.82,213.003 550.76,214.063 549.456,214.063L546.371,214.063L546.371,219.146C546.371,219.641 545.968,220.044 545.473,220.044L541.4,220.044ZM565.958,242.491L514.042,242.491L501.293,260.119L578.707,260.119L565.958,242.491ZM528.18,194.713L528.18,192.787C528.18,191.483 529.24,190.424 530.544,190.424L549.456,190.424C550.76,190.424 551.82,191.483 551.82,192.787L551.82,194.713L589.856,194.713L589.856,183.992C589.856,178.489 585.388,174.021 579.885,174.021L500.115,174.021C494.612,174.021 490.144,178.489 490.144,183.992L490.144,194.713L528.18,194.713Z" style="fill:rgb(36,36,36);"/>
    </g>
    <g id="Welding" transform="matrix(1,0,0,1,514.729,-14.4026)">
        <g transform="matrix(1,0,0,1,-6.70809,32.2789)">
            <path d="M231.326,350.596C231.319,350.86 231.315,351.124 231.315,351.389C231.315,366.994 243.984,379.662 259.588,379.662L266.144,379.662C281.748,379.662 294.417,366.994 294.417,351.389C294.417,351.124 294.413,350.86 294.406,350.596C294.413,350.399 294.417,350.201 294.417,350.002L294.417,308.637C294.417,299.93 287.348,292.861 278.642,292.861L247.091,292.861C238.384,292.861 231.315,299.93 231.315,308.637L231.315,350.002C231.315,350.201 231.319,350.399 231.326,350.596ZM283.902,318.903C283.902,315.71 281.31,313.117 278.116,313.117L247.616,313.117C244.422,313.117 241.83,315.71 241.83,318.903L241.83,330.476C241.83,333.669 244.422,336.262 247.616,336.262L278.116,336.262C281.31,336.262 283.902,333.669 283.902,330.476L283.902,318.903Z" style="fill:rgb(36,36,36);"/>
        </g>
        <g transform="matrix(1,0,0,1,2.5542,28.2634)">
            <path d="M332.011,330.169C332.011,321.042 324.602,313.633 315.475,313.633C306.348,313.633 298.938,321.042 298.938,330.169L298.938,363.126C298.938,372.253 306.348,379.662 315.475,379.662C324.602,379.662 332.011,372.253 332.011,363.126L332.011,330.169Z" style="fill:rgb(36,36,36);"/>
        </g>
        <g transform="matrix(1,0,0,1.35861,-6.72092,-71.4502)">
            <path d="M324.75,307.013L324.75,294.863L341.286,294.863" style="fill:none;stroke:rgb(36,36,36);stroke-width:6.09px;stroke-linejoin:round;stroke-miterlimit:1.5;"/>
        </g>
        <g transform="matrix(1,0,0,2.2602,53.5805,-320.93)">
            <path d="M312.158,287.623C312.158,287.012 311.038,286.517 309.658,286.517L292.337,286.517C290.957,286.517 289.837,287.012 289.837,287.623C289.837,288.233 290.957,288.729 292.337,288.729L309.658,288.729C311.038,288.729 312.158,288.233 312.158,287.623Z" style="fill:rgb(36,36,36);"/>
        </g>
        <g transform="matrix(0.342143,-0.091677,0.584984,2.18319,84.001,-279.744)">
            <path d="M312.158,287.623C312.158,287.012 308.995,286.517 305.1,286.517L296.895,286.517C293,286.517 289.837,287.012 289.837,287.623C289.837,288.233 293,288.729 296.895,288.729L305.1,288.729C308.995,288.729 312.158,288.233 312.158,287.623Z" style="fill:rgb(36,36,36);"/>
        </g>
        <g transform="matrix(-0.342143,-0.091677,-0.584984,2.18319,626.479,-262.682)">
            <path d="M312.158,287.623C312.158,287.012 308.995,286.517 305.1,286.517L296.895,286.517C293,286.517 289.837,287.012 289.837,287.623C289.837,288.233 293,288.729 296.895,288.729L305.1,288.729C308.995,288.729 312.158,288.233 312.158,287.623Z" style="fill:rgb(36,36,36);"/>
        </g>
        <g transform="matrix(0.707107,-0.707107,1.59821,1.59821,-325.414,69.9351)">
            <path d="M312.158,287.623C312.158,287.012 311.038,286.517 309.658,286.517L292.337,286.517C290.957,286.517 289.837,287.012 289.837,287.623C289.837,288.233 290.957,288.729 292.337,288.729L309.658,288.729C311.038,288.729 312.158,288.233 312.158,287.623Z" style="fill:rgb(36,36,36);"/>
        </g>
        <g transform="matrix(-0.707107,-0.707107,-1.59821,1.59821,1019.62,94.4721)">
            <path d="M312.158,287.623C312.158,287.012 311.038,286.517 309.658,286.517L292.337,286.517C290.957,286.517 289.837,287.012 289.837,287.623C289.837,288.233 290.957,288.729 292.337,288.729L309.658,288.729C311.038,288.729 312.158,288.233 312.158,287.623Z" style="fill:rgb(36,36,36);"/>
        </g>
    </g>
    <g id="Laser-Cutter" serif:id="Laser Cutter">
        <g transform="matrix(1,0,0,1,-0.162612,18.9659)">
            <path d="M590.019,289.442C590.019,288.672 589.394,288.047 588.624,288.047L491.376,288.047C490.606,288.047 489.981,288.672 489.981,289.442L489.981,300.604C489.981,301.374 490.606,302 491.376,302L588.624,302C589.394,302 590.019,301.374 590.019,300.604L590.019,289.442Z" style="fill:rgb(36,36,36);"/>
        </g>
        <g transform="matrix(0.454615,0,0,1,292.8,17.311)">
            <path d="M550.201,343.525C550.201,341.908 547.313,340.596 543.757,340.596C540.201,340.596 537.314,341.908 537.314,343.525L537.314,384.038C537.314,385.654 540.201,386.967 543.757,386.967C547.313,386.967 550.201,385.654 550.201,384.038L550.201,343.525Z" style="fill:rgb(36,36,36);"/>
        </g>
        <g transform="matrix(0.393708,0.227308,-0.337286,0.584197,465.651,53.1482)">
            <path d="M550.201,344.938C550.201,342.541 547.313,340.596 543.757,340.596C540.201,340.596 537.314,342.541 537.314,344.938L537.314,382.625C537.314,385.021 540.201,386.967 543.757,386.967C547.313,386.967 550.201,385.021 550.201,382.625L550.201,344.938Z" style="fill:rgb(36,36,36);"/>
        </g>
        <g transform="matrix(0.227308,0.393708,-0.584197,0.337286,663.929,57.1407)">
            <path d="M550.201,344.938C550.201,342.541 547.313,340.596 543.757,340.596C540.201,340.596 537.314,342.541 537.314,344.938L537.314,382.625C537.314,385.021 540.201,386.967 543.757,386.967C547.313,386.967 550.201,385.021 550.201,382.625L550.201,344.938Z" style="fill:rgb(36,36,36);"/>
        </g>
        <g transform="matrix(-0.227308,0.393708,0.584197,0.337286,416.071,57.1407)">
            <path d="M550.201,344.938C550.201,342.541 547.313,340.596 543.757,340.596C540.201,340.596 537.314,342.541 537.314,344.938L537.314,382.625C537.314,385.021 540.201,386.967 543.757,386.967C547.313,386.967 550.201,385.021 550.201,382.625L550.201,344.938Z" style="fill:rgb(36,36,36);"/>
        </g>
        <g transform="matrix(-0.393708,0.227308,0.337286,0.584197,614.349,53.1482)">
            <path d="M550.201,344.938C550.201,342.541 547.313,340.596 543.757,340.596C540.201,340.596 537.314,342.541 537.314,344.938L537.314,382.625C537.314,385.021 540.201,386.967 543.757,386.967C547.313,386.967 550.201,385.021 550.201,382.625L550.201,344.938Z" style="fill:rgb(36,36,36);"/>
        </g>
        <g transform="matrix(0.590199,0,0,1.28823,219.06,-74.3302)">
            <rect x="522.816" y="304.39" width="41.931" height="22.883" style="fill:rgb(36,36,36);"/>
        </g>
        <g transform="matrix(1,0,0,1,-2.50111e-12,29.7292)">
            <path d="M544.865,325.053L535.135,325.053L527.626,310.034L552.374,310.034L544.865,325.053Z" style="fill:rgb(36,36,36);"/>
        </g>
    </g>
    <g id="Soldering" transform="matrix(1,0,0,1,420.828,-16.9434)">
        <path d="M346.6,268.511L351.866,268.511L351.866,300.625L261.133,300.625L261.133,294.939L313.636,294.939C314.678,296.364 316.361,297.291 318.26,297.291C321.418,297.291 323.983,294.727 323.983,291.568C323.983,291.426 323.977,291.284 323.967,291.144L346.6,268.511ZM318.26,289.305C319.509,289.305 320.523,290.319 320.523,291.568C320.523,292.817 319.509,293.832 318.26,293.832C317.011,293.832 315.996,292.817 315.996,291.568C315.996,290.319 317.011,289.305 318.26,289.305ZM316.967,278.421L326.877,268.511L337.065,268.511L319.578,285.998C319.155,285.898 318.713,285.845 318.26,285.845C316.361,285.845 314.678,286.772 313.636,288.197L261.133,288.197L261.133,282.216L306.636,282.216C307.678,283.642 309.361,284.568 311.26,284.568C314.418,284.568 316.983,282.004 316.983,278.845C316.983,278.703 316.977,278.562 316.967,278.421ZM311.26,276.582C312.509,276.582 313.523,277.596 313.523,278.845C313.523,280.095 312.509,281.109 311.26,281.109C310.011,281.109 308.996,280.095 308.996,278.845C308.996,277.596 310.011,276.582 311.26,276.582ZM317.342,268.511L312.578,273.276C312.155,273.175 311.713,273.123 311.26,273.123C309.361,273.123 307.678,274.049 306.636,275.474L261.133,275.474L261.133,268.511L317.342,268.511Z" style="fill:rgb(36,36,36);"/>
        <g transform="matrix(0.371957,0.371957,-0.409775,0.409775,302.543,34.1649)">
            <path d="M351.866,228.174C351.866,226.38 350.261,224.923 348.284,224.923L324.792,224.923C322.815,224.923 321.211,226.38 321.211,228.174L321.211,234.677C321.211,236.471 322.815,237.928 324.792,237.928L348.284,237.928C350.261,237.928 351.866,236.471 351.866,234.677L351.866,228.174Z" style="fill:rgb(36,36,36);"/>
        </g>
        <g transform="matrix(0.242333,0.242333,-1.9175,1.9175,706.507,-282.552)">
            <path d="M351.866,225.892C351.866,225.357 348.432,224.923 344.202,224.923L328.874,224.923C324.645,224.923 321.211,225.357 321.211,225.892L321.211,236.96C321.211,237.494 324.645,237.928 328.874,237.928L344.202,237.928C348.432,237.928 351.866,237.494 351.866,236.96L351.866,225.892Z" style="fill:rgb(36,36,36);"/>
        </g>
        <g transform="matrix(1.03281,0,0,1.08458,-10.0558,-22.4736)">
            <rect x="306.5" y="265.709" width="11.237" height="9.327" style="fill:rgb(238,157,34);"/>
        </g>
        <g transform="matrix(0.120024,0.120024,-1.74605,1.74605,689.063,-182.784)">
            <path d="M351.866,225.45C351.866,225.159 348.432,224.923 344.202,224.923L328.874,224.923C324.645,224.923 321.211,225.159 321.211,225.45L321.211,237.401C321.211,237.692 332.682,238.828 336.912,238.828C336.912,238.828 336.782,238.829 336.912,238.828C341.384,238.816 351.866,237.684 351.866,237.401L351.866,225.45Z" style="fill:rgb(36,36,36);"/>
        </g>
        <g transform="matrix(0.707107,0.707107,-0.707107,0.707107,289.671,-142.649)">
            <path d="M311.156,216.262C311.156,211.971 311.069,203.448 313.156,203.39C315.243,203.331 323.591,216.102 325.678,215.911C327.764,215.72 328.678,206.799 328.678,202.243" style="fill:none;stroke:rgb(36,36,36);stroke-width:4px;stroke-linejoin:round;stroke-miterlimit:1.5;"/>
        </g>
    </g>
    <g transform="matrix(0.857423,0,0,0.857423,77.8601,106.304)">
        <g id="Sewing-Machine" serif:id="Sewing Machine">
            <path d="M473.898,757.072C473.898,762.466 478.277,766.845 483.671,766.845L485.614,766.845L485.614,784.191C485.614,786.437 487.437,788.26 489.683,788.26C491.928,788.26 493.752,786.437 493.752,784.191L493.752,766.845L495.695,766.845C501.088,766.845 505.467,762.466 505.467,757.072L519.769,757.072C523.093,757.072 525.791,754.374 525.791,751.051L525.791,726.444L571.764,726.444L571.764,804.115L448.591,804.115C445.1,804.115 442.266,806.949 442.266,810.44L442.266,829.416C442.266,832.907 445.1,835.741 448.591,835.741L643.594,835.741C647.085,835.741 649.919,832.907 649.919,829.416L649.919,810.44C649.919,806.949 647.085,804.115 643.594,804.115L642.463,804.115L642.463,687.786C642.463,685.415 640.538,683.49 638.168,683.49L578.834,683.49L494.547,683.49L470.227,683.49L469.842,683.49L469.639,683.496C454.479,683.809 442.266,696.215 442.266,711.452L442.266,729.111C442.266,744.543 454.795,757.072 470.227,757.072L473.898,757.072ZM607.114,757.072C616.258,757.072 623.681,764.496 623.681,773.64C623.681,782.785 616.258,790.208 607.114,790.208C597.969,790.208 590.546,782.785 590.546,773.64C590.546,764.496 597.969,757.072 607.114,757.072ZM607.114,711.873C614.136,711.873 619.838,717.574 619.838,724.597C619.838,731.62 614.136,737.321 607.114,737.321C600.091,737.321 594.389,731.62 594.389,724.597C594.389,717.574 600.091,711.873 607.114,711.873Z" style="fill:rgb(36,36,36);"/>
        </g>
    </g>
    <g id="Threads" transform="matrix(0.879814,0,0,0.879814,64.9023,114.405)">
        <g transform="matrix(7.74086e-17,-1.26418,1,6.12323e-17,-395.671,1483.04)">
            <path d="M515.252,869.282C515.252,864.535 512.203,860.68 508.448,860.68L449.07,860.68C445.315,860.68 442.266,864.535 442.266,869.282L442.266,886.485C442.266,891.233 445.315,895.087 449.07,895.087L508.448,895.087C512.203,895.087 515.252,891.233 515.252,886.485L515.252,869.282Z" style="fill:rgb(36,36,36);"/>
        </g>
        <g transform="matrix(5.9163e-17,-0.966205,1.3246,8.11085e-17,-680.634,1340.38)">
            <path d="M515.252,869.282C515.252,864.535 509.968,860.68 503.46,860.68L454.058,860.68C447.55,860.68 442.266,864.535 442.266,869.282L442.266,886.485C442.266,891.233 447.55,895.087 454.058,895.087L503.46,895.087C509.968,895.087 515.252,891.233 515.252,886.485L515.252,869.282Z" style="fill:rgb(36,36,36);"/>
        </g>
        <g transform="matrix(5.29696e-17,-0.86506,1.09836,6.72553e-17,-482.022,1291.96)">
            <path d="M515.252,869.282C515.252,864.535 510.358,860.68 504.331,860.68L453.187,860.68C447.16,860.68 442.266,864.535 442.266,869.282L442.266,886.485C442.266,891.233 447.16,895.087 453.187,895.087L504.331,895.087C510.358,895.087 515.252,891.233 515.252,886.485L515.252,869.282Z" style="fill:rgb(36,36,36);"/>
            <clipPath id="_clip1">
                <path d="M515.252,869.282C515.252,864.535 510.358,860.68 504.331,860.68L453.187,860.68C447.16,860.68 442.266,864.535 442.266,869.282L442.266,886.485C442.266,891.233 447.16,895.087 453.187,895.087L504.331,895.087C510.358,895.087 515.252,891.233 515.252,886.485L515.252,869.282Z"/>
            </clipPath>
            <g clip-path="url(#_clip1)">
                <g transform="matrix(0.0633844,-0.0041654,0.257146,1.20307,189.803,-176.275)">
                    <path d="M515.252,861.432C515.252,861.017 507.076,860.68 497.006,860.68L460.512,860.68C450.442,860.68 442.266,861.017 442.266,861.432L442.266,894.335C442.266,894.75 450.442,895.087 460.512,895.087L497.006,895.087C507.076,895.087 515.252,894.75 515.252,894.335L515.252,861.432Z" style="fill:rgb(238,157,34);"/>
                </g>
                <g transform="matrix(0.0633844,-0.0041654,0.257146,1.20307,201.363,-176.275)">
                    <path d="M515.252,861.432C515.252,861.017 507.076,860.68 497.006,860.68L460.512,860.68C450.442,860.68 442.266,861.017 442.266,861.432L442.266,894.335C442.266,894.75 450.442,895.087 460.512,895.087L497.006,895.087C507.076,895.087 515.252,894.75 515.252,894.335L515.252,861.432Z" style="fill:rgb(238,157,34);"/>
                </g>
                <g transform="matrix(0.0633844,-0.0041654,0.257146,1.20307,212.923,-176.275)">
                    <path d="M515.252,861.432C515.252,861.017 507.076,860.68 497.006,860.68L460.512,860.68C450.442,860.68 442.266,861.017 442.266,861.432L442.266,894.335C442.266,894.75 450.442,895.087 460.512,895.087L497.006,895.087C507.076,895.087 515.252,894.75 515.252,894.335L515.252,861.432Z" style="fill:rgb(238,157,34);"/>
                </g>
                <g transform="matrix(0.0633844,-0.0041654,0.257146,1.20307,224.482,-176.275)">
                    <path d="M515.252,861.432C515.252,861.017 507.076,860.68 497.006,860.68L460.512,860.68C450.442,860.68 442.266,861.017 442.266,861.432L442.266,894.335C442.266,894.75 450.442,895.087 460.512,895.087L497.006,895.087C507.076,895.087 515.252,894.75 515.252,894.335L515.252,861.432Z" style="fill:rgb(238,157,34);"/>
                </g>
                <g transform="matrix(0.0633844,-0.0041654,0.257146,1.20307,236.042,-176.275)">
                    <path d="M515.252,861.432C515.252,861.017 507.076,860.68 497.006,860.68L460.512,860.68C450.442,860.68 442.266,861.017 442.266,861.432L442.266,894.335C442.266,894.75 450.442,895.087 460.512,895.087L497.006,895.087C507.076,895.087 515.252,894.75 515.252,894.335L515.252,861.432Z" style="fill:rgb(238,157,34);"/>
                </g>
                <g transform="matrix(0.0633844,-0.0041654,0.257146,1.20307,247.602,-176.275)">
                    <path d="M515.252,861.432C515.252,861.017 507.076,860.68 497.006,860.68L460.512,860.68C450.442,860.68 442.266,861.017 442.266,861.432L442.266,894.335C442.266,894.75 450.442,895.087 460.512,895.087L497.006,895.087C507.076,895.087 515.252,894.75 515.252,894.335L515.252,861.432Z" style="fill:rgb(238,157,34);"/>
                </g>
                <g transform="matrix(0.0633844,-0.0041654,0.257146,1.20307,259.162,-176.275)">
                    <path d="M515.252,861.432C515.252,861.017 507.076,860.68 497.006,860.68L460.512,860.68C450.442,860.68 442.266,861.017 442.266,861.432L442.266,894.335C442.266,894.75 450.442,895.087 460.512,895.087L497.006,895.087C507.076,895.087 515.252,894.75 515.252,894.335L515.252,861.432Z" style="fill:rgb(238,157,34);"/>
                </g>
            </g>
        </g>
        <g transform="matrix(7.74086e-17,-1.26418,1,6.12323e-17,-280.064,1483.04)">
            <path d="M515.252,869.282C515.252,864.535 512.203,860.68 508.448,860.68L449.07,860.68C445.315,860.68 442.266,864.535 442.266,869.282L442.266,886.485C442.266,891.233 445.315,895.087 449.07,895.087L508.448,895.087C512.203,895.087 515.252,891.233 515.252,886.485L515.252,869.282Z" style="fill:rgb(36,36,36);"/>
        </g>
        <g transform="matrix(5.9163e-17,-0.966205,1.3246,8.11085e-17,-565.027,1340.38)">
            <path d="M515.252,869.282C515.252,864.535 509.968,860.68 503.46,860.68L454.058,860.68C447.55,860.68 442.266,864.535 442.266,869.282L442.266,886.485C442.266,891.233 447.55,895.087 454.058,895.087L503.46,895.087C509.968,895.087 515.252,891.233 515.252,886.485L515.252,869.282Z" style="fill:rgb(36,36,36);"/>
        </g>
        <g transform="matrix(5.29696e-17,-0.86506,1.09836,6.72553e-17,-366.415,1291.96)">
            <path d="M515.252,869.282C515.252,864.535 510.358,860.68 504.331,860.68L453.187,860.68C447.16,860.68 442.266,864.535 442.266,869.282L442.266,886.485C442.266,891.233 447.16,895.087 453.187,895.087L504.331,895.087C510.358,895.087 515.252,891.233 515.252,886.485L515.252,869.282Z" style="fill:rgb(36,36,36);"/>
            <clipPath id="_clip2">
                <path d="M515.252,869.282C515.252,864.535 510.358,860.68 504.331,860.68L453.187,860.68C447.16,860.68 442.266,864.535 442.266,869.282L442.266,886.485C442.266,891.233 447.16,895.087 453.187,895.087L504.331,895.087C510.358,895.087 515.252,891.233 515.252,886.485L515.252,869.282Z"/>
            </clipPath>
            <g clip-path="url(#_clip2)">
                <g transform="matrix(0.0633844,-0.0041654,0.257146,1.20307,189.803,-176.275)">
                    <path d="M515.252,861.432C515.252,861.017 507.076,860.68 497.006,860.68L460.512,860.68C450.442,860.68 442.266,861.017 442.266,861.432L442.266,894.335C442.266,894.75 450.442,895.087 460.512,895.087L497.006,895.087C507.076,895.087 515.252,894.75 515.252,894.335L515.252,861.432Z" style="fill:rgb(238,157,34);"/>
                </g>
                <g transform="matrix(0.0633844,-0.0041654,0.257146,1.20307,201.363,-176.275)">
                    <path d="M515.252,861.432C515.252,861.017 507.076,860.68 497.006,860.68L460.512,860.68C450.442,860.68 442.266,861.017 442.266,861.432L442.266,894.335C442.266,894.75 450.442,895.087 460.512,895.087L497.006,895.087C507.076,895.087 515.252,894.75 515.252,894.335L515.252,861.432Z" style="fill:rgb(238,157,34);"/>
                </g>
                <g transform="matrix(0.0633844,-0.0041654,0.257146,1.20307,212.923,-176.275)">
                    <path d="M515.252,861.432C515.252,861.017 507.076,860.68 497.006,860.68L460.512,860.68C450.442,860.68 442.266,861.017 442.266,861.432L442.266,894.335C442.266,894.75 450.442,895.087 460.512,895.087L497.006,895.087C507.076,895.087 515.252,894.75 515.252,894.335L515.252,861.432Z" style="fill:rgb(238,157,34);"/>
                </g>
                <g transform="matrix(0.0633844,-0.0041654,0.257146,1.20307,224.482,-176.275)">
                    <path d="M515.252,861.432C515.252,861.017 507.076,860.68 497.006,860.68L460.512,860.68C450.442,860.68 442.266,861.017 442.266,861.432L442.266,894.335C442.266,894.75 450.442,895.087 460.512,895.087L497.006,895.087C507.076,895.087 515.252,894.75 515.252,894.335L515.252,861.432Z" style="fill:rgb(238,157,34);"/>
                </g>
                <g transform="matrix(0.0633844,-0.0041654,0.257146,1.20307,236.042,-176.275)">
                    <path d="M515.252,861.432C515.252,861.017 507.076,860.68 497.006,860.68L460.512,860.68C450.442,860.68 442.266,861.017 442.266,861.432L442.266,894.335C442.266,894.75 450.442,895.087 460.512,895.087L497.006,895.087C507.076,895.087 515.252,894.75 515.252,894.335L515.252,861.432Z" style="fill:rgb(238,157,34);"/>
                </g>
                <g transform="matrix(0.0633844,-0.0041654,0.257146,1.20307,247.602,-176.275)">
                    <path d="M515.252,861.432C515.252,861.017 507.076,860.68 497.006,860.68L460.512,860.68C450.442,860.68 442.266,861.017 442.266,861.432L442.266,894.335C442.266,894.75 450.442,895.087 460.512,895.087L497.006,895.087C507.076,895.087 515.252,894.75 515.252,894.335L515.252,861.432Z" style="fill:rgb(238,157,34);"/>
                </g>
                <g transform="matrix(0.0633844,-0.0041654,0.257146,1.20307,259.162,-176.275)">
                    <path d="M515.252,861.432C515.252,861.017 507.076,860.68 497.006,860.68L460.512,860.68C450.442,860.68 442.266,861.017 442.266,861.432L442.266,894.335C442.266,894.75 450.442,895.087 460.512,895.087L497.006,895.087C507.076,895.087 515.252,894.75 515.252,894.335L515.252,861.432Z" style="fill:rgb(238,157,34);"/>
                </g>
            </g>
        </g>
        <g transform="matrix(7.74086e-17,1.26418,-1,6.12323e-17,1417.88,270.999)">
            <path d="M515.252,869.282C515.252,864.535 512.203,860.68 508.448,860.68L449.07,860.68C445.315,860.68 442.266,864.535 442.266,869.282L442.266,886.485C442.266,891.233 445.315,895.087 449.07,895.087L508.448,895.087C512.203,895.087 515.252,891.233 515.252,886.485L515.252,869.282Z" style="fill:rgb(36,36,36);"/>
        </g>
        <g transform="matrix(5.9163e-17,0.966205,-1.3246,8.11085e-17,1702.85,413.656)">
            <path d="M515.252,869.282C515.252,864.535 509.968,860.68 503.46,860.68L454.058,860.68C447.55,860.68 442.266,864.535 442.266,869.282L442.266,886.485C442.266,891.233 447.55,895.087 454.058,895.087L503.46,895.087C509.968,895.087 515.252,891.233 515.252,886.485L515.252,869.282Z" style="fill:rgb(36,36,36);"/>
        </g>
        <g transform="matrix(5.29696e-17,0.86506,-1.09836,6.72553e-17,1504.23,462.08)">
            <path d="M515.252,869.282C515.252,864.535 510.358,860.68 504.331,860.68L453.187,860.68C447.16,860.68 442.266,864.535 442.266,869.282L442.266,886.485C442.266,891.233 447.16,895.087 453.187,895.087L504.331,895.087C510.358,895.087 515.252,891.233 515.252,886.485L515.252,869.282Z" style="fill:rgb(36,36,36);"/>
            <clipPath id="_clip3">
                <path d="M515.252,869.282C515.252,864.535 510.358,860.68 504.331,860.68L453.187,860.68C447.16,860.68 442.266,864.535 442.266,869.282L442.266,886.485C442.266,891.233 447.16,895.087 453.187,895.087L504.331,895.087C510.358,895.087 515.252,891.233 515.252,886.485L515.252,869.282Z"/>
            </clipPath>
            <g clip-path="url(#_clip3)">
                <g transform="matrix(0.0633844,-0.0041654,0.257146,1.20307,189.803,-176.275)">
                    <path d="M515.252,861.432C515.252,861.017 507.076,860.68 497.006,860.68L460.512,860.68C450.442,860.68 442.266,861.017 442.266,861.432L442.266,894.335C442.266,894.75 450.442,895.087 460.512,895.087L497.006,895.087C507.076,895.087 515.252,894.75 515.252,894.335L515.252,861.432Z" style="fill:rgb(238,157,34);"/>
                </g>
                <g transform="matrix(0.0633844,-0.0041654,0.257146,1.20307,201.363,-176.275)">
                    <path d="M515.252,861.432C515.252,861.017 507.076,860.68 497.006,860.68L460.512,860.68C450.442,860.68 442.266,861.017 442.266,861.432L442.266,894.335C442.266,894.75 450.442,895.087 460.512,895.087L497.006,895.087C507.076,895.087 515.252,894.75 515.252,894.335L515.252,861.432Z" style="fill:rgb(238,157,34);"/>
                </g>
                <g transform="matrix(0.0633844,-0.0041654,0.257146,1.20307,212.923,-176.275)">
                    <path d="M515.252,861.432C515.252,861.017 507.076,860.68 497.006,860.68L460.512,860.68C450.442,860.68 442.266,861.017 442.266,861.432L442.266,894.335C442.266,894.75 450.442,895.087 460.512,895.087L497.006,895.087C507.076,895.087 515.252,894.75 515.252,894.335L515.252,861.432Z" style="fill:rgb(238,157,34);"/>
                </g>
                <g transform="matrix(0.0633844,-0.0041654,0.257146,1.20307,224.482,-176.275)">
                    <path d="M515.252,861.432C515.252,861.017 507.076,860.68 497.006,860.68L460.512,860.68C450.442,860.68 442.266,861.017 442.266,861.432L442.266,894.335C442.266,894.75 450.442,895.087 460.512,895.087L497.006,895.087C507.076,895.087 515.252,894.75 515.252,894.335L515.252,861.432Z" style="fill:rgb(238,157,34);"/>
                </g>
                <g transform="matrix(0.0633844,-0.0041654,0.257146,1.20307,236.042,-176.275)">
                    <path d="M515.252,861.432C515.252,861.017 507.076,860.68 497.006,860.68L460.512,860.68C450.442,860.68 442.266,861.017 442.266,861.432L442.266,894.335C442.266,894.75 450.442,895.087 460.512,895.087L497.006,895.087C507.076,895.087 515.252,894.75 515.252,894.335L515.252,861.432Z" style="fill:rgb(238,157,34);"/>
                </g>
                <g transform="matrix(0.0633844,-0.0041654,0.257146,1.20307,247.602,-176.275)">
                    <path d="M515.252,861.432C515.252,861.017 507.076,860.68 497.006,860.68L460.512,860.68C450.442,860.68 442.266,861.017 442.266,861.432L442.266,894.335C442.266,894.75 450.442,895.087 460.512,895.087L497.006,895.087C507.076,895.087 515.252,894.75 515.252,894.335L515.252,861.432Z" style="fill:rgb(238,157,34);"/>
                </g>
                <g transform="matrix(0.0633844,-0.0041654,0.257146,1.20307,259.162,-176.275)">
                    <path d="M515.252,861.432C515.252,861.017 507.076,860.68 497.006,860.68L460.512,860.68C450.442,860.68 442.266,861.017 442.266,861.432L442.266,894.335C442.266,894.75 450.442,895.087 460.512,895.087L497.006,895.087C507.076,895.087 515.252,894.75 515.252,894.335L515.252,861.432Z" style="fill:rgb(238,157,34);"/>
                </g>
            </g>
        </g>
    </g>
    <g id="Cinema-Camera" serif:id="Cinema Camera" transform="matrix(0.772275,0,0,0.772275,13.3056,179.855)">
        <g transform="matrix(0.890679,0,0,1.27096,26.0187,-189.31)">
            <path d="M350.845,696.958C350.845,695.053 348.638,693.506 345.918,693.506L277.652,693.506C274.933,693.506 272.725,695.053 272.725,696.958L272.725,724.579C272.725,726.485 274.933,728.032 277.652,728.032L345.918,728.032C348.638,728.032 350.845,726.485 350.845,724.579L350.845,696.958Z" style="fill:rgb(36,36,36);"/>
        </g>
        <g transform="matrix(-0.218641,0,0,0.893249,337.099,79.1578)">
            <path d="M350.845,695.418C350.845,694.362 347.345,693.506 343.033,693.506L280.537,693.506C276.226,693.506 272.725,694.362 272.725,695.418L272.725,726.12C272.725,727.175 276.226,728.032 280.537,728.032L343.033,728.032C347.345,728.032 350.845,727.175 350.845,726.12L350.845,695.418Z" style="fill:rgb(36,36,36);"/>
        </g>
        <g transform="matrix(-1.33879e-17,-0.218641,-0.893249,5.46957e-17,938.613,804.161)">
            <path d="M350.845,695.418C350.845,694.362 347.345,693.506 343.033,693.506L280.537,693.506C276.226,693.506 272.725,694.362 272.725,695.418L272.725,726.12C272.725,727.175 276.226,728.032 280.537,728.032L343.033,728.032C347.345,728.032 350.845,727.175 350.845,726.12L350.845,695.418Z" style="fill:rgb(36,36,36);"/>
        </g>
        <g transform="matrix(-4.94888e-17,-0.808213,-0.223804,1.37041e-17,462.793,1021.01)">
            <path d="M350.845,710.769C350.845,701.241 348.703,693.506 346.065,693.506L277.506,693.506C274.867,693.506 272.725,701.241 272.725,710.769C272.725,720.296 274.867,728.032 277.506,728.032L346.065,728.032C348.703,728.032 350.845,720.296 350.845,710.769Z" style="fill:rgb(36,36,36);"/>
        </g>
        <g transform="matrix(0.421087,-0.729345,-0.19382,-0.111902,290.681,1077.1)">
            <path d="M350.845,710.769C350.845,701.241 348.79,693.506 346.258,693.506L277.313,693.506C274.781,693.506 272.725,701.241 272.725,710.769C272.725,720.296 274.781,728.032 277.313,728.032L346.258,728.032C348.79,728.032 350.845,720.296 350.845,710.769Z" style="fill:rgb(36,36,36);"/>
        </g>
        <g transform="matrix(-0.421087,-0.729345,0.19382,-0.111902,316.757,1077.1)">
            <path d="M350.845,710.769C350.845,701.241 348.79,693.506 346.258,693.506L277.313,693.506C274.781,693.506 272.725,701.241 272.725,710.769C272.725,720.296 274.781,728.032 277.313,728.032L346.258,728.032C348.79,728.032 350.845,720.296 350.845,710.769Z" style="fill:rgb(36,36,36);"/>
        </g>
        <g transform="matrix(-0.250178,0,0,0.575218,420.316,302.745)">
            <path d="M350.845,696.903C350.845,695.028 347.345,693.506 343.033,693.506L280.537,693.506C276.226,693.506 272.725,695.028 272.725,696.903L272.725,724.634C272.725,726.509 276.226,728.032 280.537,728.032L343.033,728.032C347.345,728.032 350.845,726.509 350.845,724.634L350.845,696.903Z" style="fill:rgb(36,36,36);"/>
        </g>
        <g transform="matrix(1.02906e-16,-1.68058,1.28264,7.85391e-17,-550.521,1316.74)">
            <path d="M360.081,700.521L367.793,715.945L352.369,715.945L360.081,700.521Z" style="fill:rgb(36,36,36);stroke:rgb(36,36,36);stroke-width:4px;stroke-linejoin:round;stroke-miterlimit:1.5;"/>
        </g>
        <g transform="matrix(1.34757,0,0,2.66396,-112.749,-1126.7)">
            <path d="M342.314,676.295C342.314,674.488 339.414,673.021 335.841,673.021L320.609,673.021C317.036,673.021 314.136,674.488 314.136,676.295C314.136,678.103 317.036,679.57 320.609,679.57L335.841,679.57C339.414,679.57 342.314,678.103 342.314,676.295Z" style="fill:rgb(36,36,36);"/>
        </g>
        <g transform="matrix(1.34757,0,0,1.46113,-131.735,-313.232)">
            <path d="M342.314,676.295C342.314,674.488 340.723,673.021 338.764,673.021L317.686,673.021C315.727,673.021 314.136,674.488 314.136,676.295C314.136,678.103 315.727,679.57 317.686,679.57L338.764,679.57C340.723,679.57 342.314,678.103 342.314,676.295Z" style="fill:rgb(36,36,36);"/>
        </g>
        <g transform="matrix(8.25146e-17,1.34757,-1.46113,8.94682e-17,1284.52,246.819)">
            <path d="M342.314,676.295C342.314,674.488 340.723,673.021 338.764,673.021L317.686,673.021C315.727,673.021 314.136,674.488 314.136,676.295C314.136,678.103 315.727,679.57 317.686,679.57L338.764,679.57C340.723,679.57 342.314,678.103 342.314,676.295Z" style="fill:rgb(36,36,36);"/>
        </g>
    </g>
    <g id="Light" transform="matrix(1,0,0,1,3,-1)">
        <g transform="matrix(9.55745e-17,1.56085,-0.502291,3.07564e-17,784.238,312.62)">
            <path d="M372.963,864.857C372.963,860.099 371.72,856.236 370.189,856.236L324.222,856.236C322.69,856.236 321.447,860.099 321.447,864.857C321.447,869.616 322.69,873.479 324.222,873.479L370.189,873.479C371.72,873.479 372.963,869.616 372.963,864.857Z" style="fill:rgb(36,36,36);"/>
        </g>
        <g transform="matrix(-0.409613,0.709471,-0.434997,-0.251145,857.707,847.242)">
            <path d="M372.963,864.857C372.963,860.099 370.595,856.236 367.677,856.236L326.733,856.236C323.816,856.236 321.447,860.099 321.447,864.857C321.447,869.616 323.816,873.479 326.733,873.479L367.677,873.479C370.595,873.479 372.963,869.616 372.963,864.857Z" style="fill:rgb(36,36,36);"/>
        </g>
        <g transform="matrix(0.409613,0.709471,0.434997,-0.251145,-158.183,847.242)">
            <path d="M372.963,864.857C372.963,860.099 370.595,856.236 367.677,856.236L326.733,856.236C323.816,856.236 321.447,860.099 321.447,864.857C321.447,869.616 323.816,873.479 326.733,873.479L367.677,873.479C370.595,873.479 372.963,869.616 372.963,864.857Z" style="fill:rgb(36,36,36);"/>
        </g>
        <g transform="matrix(3.03302e-17,-0.495329,1.68631,1.03256e-16,-1085.05,994.65)">
            <path d="M331.165,860.561C330.103,860.561 329.396,860.233 329.161,859.723C328.459,859.356 327.865,858.895 327.502,858.396L314.921,841.07C314.053,839.875 314.83,838.905 316.656,838.905L378.972,838.905C380.798,838.905 381.575,839.875 380.707,841.07L368.126,858.396C367.763,858.895 367.169,859.356 366.467,859.723C366.232,860.233 365.525,860.561 364.463,860.561L331.165,860.561Z" style="fill:rgb(36,36,36);"/>
        </g>
        <g transform="matrix(0.63023,-0.363864,0.488926,0.846844,-280.214,279.452)">
            <path d="M343.584,799.929C343.584,798.477 342,797.298 340.048,797.298L311.118,797.298C309.167,797.298 307.583,798.477 307.583,799.929C307.583,801.381 309.167,802.56 311.118,802.56L340.048,802.56C342,802.56 343.584,801.381 343.584,799.929Z" style="fill:rgb(36,36,36);"/>
        </g>
        <g transform="matrix(0.702931,-0.18835,0.253087,0.944532,-117.229,133.901)">
            <path d="M343.584,799.929C343.584,798.477 342,797.298 340.048,797.298L311.118,797.298C309.167,797.298 307.583,798.477 307.583,799.929C307.583,801.381 309.167,802.56 311.118,802.56L340.048,802.56C342,802.56 343.584,801.381 343.584,799.929Z" style="fill:rgb(36,36,36);"/>
        </g>
        <g transform="matrix(0.702931,0.18835,-0.253087,0.944532,287.673,-1.01061)">
            <path d="M343.584,799.929C343.584,798.477 342,797.298 340.048,797.298L311.118,797.298C309.167,797.298 307.583,798.477 307.583,799.929C307.583,801.381 309.167,802.56 311.118,802.56L340.048,802.56C342,802.56 343.584,801.381 343.584,799.929Z" style="fill:rgb(36,36,36);"/>
        </g>
        <g transform="matrix(0.63023,0.363864,-0.488926,0.846844,501.998,9.72416)">
            <path d="M343.584,799.929C343.584,798.477 342,797.298 340.048,797.298L311.118,797.298C309.167,797.298 307.583,798.477 307.583,799.929C307.583,801.381 309.167,802.56 311.118,802.56L340.048,802.56C342,802.56 343.584,801.381 343.584,799.929Z" style="fill:rgb(36,36,36);"/>
        </g>
    </g>
    <g id="Various-Decor1" serif:id="Various Decor" transform="matrix(2.12257,0,0,2.12257,78.8119,400.216)">
        <g transform="matrix(0.574054,0,0,0.574054,269.702,-46.34)">
            <circle cx="63.2" cy="356.5" r="24.4" style="fill:rgb(36,36,36);"/>
        </g>
        <path d="M305.9,152.9L305.9,163.7" style="fill:none;fill-rule:nonzero;stroke:rgb(238,157,34);stroke-width:4px;"/>
        <path d="M300.5,158.3L311.3,158.3" style="fill:none;fill-rule:nonzero;stroke:rgb(238,157,34);stroke-width:4px;"/>
    </g>
</svg>
