<?xml version="1.0" encoding="UTF-8" standalone="no"?>
<!DOCTYPE svg PUBLIC "-//W3C//DTD SVG 1.1//EN" "http://www.w3.org/Graphics/SVG/1.1/DTD/svg11.dtd">
<svg width="100%" height="100%" viewBox="0 0 1080 1080" version="1.1" xmlns="http://www.w3.org/2000/svg" xmlns:xlink="http://www.w3.org/1999/xlink" xml:space="preserve" xmlns:serif="http://www.serif.com/" style="fill-rule:evenodd;clip-rule:evenodd;stroke-linejoin:round;stroke-miterlimit:2;">
    <g transform="matrix(1,0,0,1,0,16.0994)">
        <g transform="matrix(0.601238,0,0,0.31205,-62.2849,618.608)">
            <path d="M662.051,154.677C662.051,123.855 649.063,98.831 633.066,98.831L132.579,98.831C116.582,98.831 103.594,123.855 103.594,154.677L103.594,601.442C103.594,632.264 116.582,657.288 132.579,657.288L633.066,657.288C649.063,657.288 662.051,632.264 662.051,601.442L662.051,154.677Z"/>
        </g>
        <g transform="matrix(0.601238,0,0,0.31205,309.832,618.608)">
            <path d="M662.051,154.677C662.051,123.855 649.063,98.831 633.066,98.831L132.579,98.831C116.582,98.831 103.594,123.855 103.594,154.677L103.594,601.442C103.594,632.264 116.582,657.288 132.579,657.288L633.066,657.288C649.063,657.288 662.051,632.264 662.051,601.442L662.051,154.677Z"/>
        </g>
        <g transform="matrix(0.601238,0,0,0.31205,309.832,193.246)">
            <path d="M662.051,154.677C662.051,123.855 649.063,98.831 633.066,98.831L132.579,98.831C116.582,98.831 103.594,123.855 103.594,154.677L103.594,601.442C103.594,632.264 116.582,657.288 132.579,657.288L633.066,657.288C649.063,657.288 662.051,632.264 662.051,601.442L662.051,154.677Z"/>
        </g>
        <g transform="matrix(0.601238,0,0,0.31205,681.95,618.608)">
            <path d="M662.051,154.677C662.051,123.855 649.063,98.831 633.066,98.831L132.579,98.831C116.582,98.831 103.594,123.855 103.594,154.677L103.594,601.442C103.594,632.264 116.582,657.288 132.579,657.288L633.066,657.288C649.063,657.288 662.051,632.264 662.051,601.442L662.051,154.677Z"/>
        </g>
        <g transform="matrix(0.601238,0,0,0.31205,126.182,405.927)">
            <path d="M662.051,154.677C662.051,123.855 649.063,98.831 633.066,98.831L132.579,98.831C116.582,98.831 103.594,123.855 103.594,154.677L103.594,601.442C103.594,632.264 116.582,657.288 132.579,657.288L633.066,657.288C649.063,657.288 662.051,632.264 662.051,601.442L662.051,154.677Z"/>
        </g>
        <g transform="matrix(0.601238,0,0,0.31205,493.483,405.927)">
            <path d="M662.051,154.677C662.051,123.855 649.063,98.831 633.066,98.831L132.579,98.831C116.582,98.831 103.594,123.855 103.594,154.677L103.594,601.442C103.594,632.264 116.582,657.288 132.579,657.288L633.066,657.288C649.063,657.288 662.051,632.264 662.051,601.442L662.051,154.677Z"/>
        </g>
    </g>
</svg>
