<?xml version="1.0" encoding="UTF-8" standalone="no"?>
<!DOCTYPE svg PUBLIC "-//W3C//DTD SVG 1.1//EN" "http://www.w3.org/Graphics/SVG/1.1/DTD/svg11.dtd">
<svg width="100%" height="100%" viewBox="0 0 1080 1080" version="1.1" xmlns="http://www.w3.org/2000/svg" xmlns:xlink="http://www.w3.org/1999/xlink" xml:space="preserve" xmlns:serif="http://www.serif.com/" style="fill-rule:evenodd;clip-rule:evenodd;stroke-linejoin:round;stroke-miterlimit:2;">
    <g transform="matrix(1,0,0,1.19461,0,-85.8559)">
        <g transform="matrix(0.601238,0,0,0.31205,-62.2849,618.608)">
            <path d="M662.051,154.677C662.051,123.855 646.536,98.831 627.426,98.831L138.219,98.831C119.109,98.831 103.594,123.855 103.594,154.677L103.594,601.442C103.594,632.264 119.109,657.288 138.219,657.288L627.426,657.288C646.536,657.288 662.051,632.264 662.051,601.442L662.051,154.677Z"/>
        </g>
        <g transform="matrix(0.601238,0,0,0.31205,309.832,618.608)">
            <path d="M662.051,154.677C662.051,123.855 646.536,98.831 627.426,98.831L138.219,98.831C119.109,98.831 103.594,123.855 103.594,154.677L103.594,601.442C103.594,632.264 119.109,657.288 138.219,657.288L627.426,657.288C646.536,657.288 662.051,632.264 662.051,601.442L662.051,154.677Z"/>
        </g>
        <g transform="matrix(0.601238,0,0,0.31205,309.832,193.246)">
            <path d="M662.051,154.677C662.051,123.855 646.536,98.831 627.426,98.831L138.219,98.831C119.109,98.831 103.594,123.855 103.594,154.677L103.594,601.442C103.594,632.264 119.109,657.288 138.219,657.288L627.426,657.288C646.536,657.288 662.051,632.264 662.051,601.442L662.051,154.677Z"/>
        </g>
        <g transform="matrix(0.601238,0,0,0.31205,681.95,618.608)">
            <path d="M662.051,154.677C662.051,123.855 646.536,98.831 627.426,98.831L138.219,98.831C119.109,98.831 103.594,123.855 103.594,154.677L103.594,601.442C103.594,632.264 119.109,657.288 138.219,657.288L627.426,657.288C646.536,657.288 662.051,632.264 662.051,601.442L662.051,154.677Z"/>
        </g>
        <g transform="matrix(0.601238,0,0,0.31205,126.182,405.927)">
            <path d="M662.051,154.677C662.051,123.855 646.536,98.831 627.426,98.831L138.219,98.831C119.109,98.831 103.594,123.855 103.594,154.677L103.594,601.442C103.594,632.264 119.109,657.288 138.219,657.288L627.426,657.288C646.536,657.288 662.051,632.264 662.051,601.442L662.051,154.677Z"/>
        </g>
        <g transform="matrix(0.601238,0,0,0.31205,493.483,405.927)">
            <path d="M662.051,154.677C662.051,123.855 646.536,98.831 627.426,98.831L138.219,98.831C119.109,98.831 103.594,123.855 103.594,154.677L103.594,601.442C103.594,632.264 119.109,657.288 138.219,657.288L627.426,657.288C646.536,657.288 662.051,632.264 662.051,601.442L662.051,154.677Z"/>
        </g>
    </g>
    <g transform="matrix(1,0,0,1.19461,-8.88178e-16,-85.8559)">
        <g transform="matrix(0.243312,0,0,0.0866223,74.7375,703.833)">
            <path d="M662.051,154.677C662.051,123.855 651.408,98.831 638.3,98.831L127.345,98.831C114.237,98.831 103.594,123.855 103.594,154.677L103.594,601.442C103.594,632.264 114.237,657.288 127.345,657.288L638.3,657.288C651.408,657.288 662.051,632.264 662.051,601.442L662.051,154.677Z" style="fill:white;"/>
        </g>
        <g transform="matrix(0.243312,0,0,0.0866223,446.855,703.833)">
            <path d="M662.051,154.677C662.051,123.855 651.408,98.831 638.3,98.831L127.345,98.831C114.237,98.831 103.594,123.855 103.594,154.677L103.594,601.442C103.594,632.264 114.237,657.288 127.345,657.288L638.3,657.288C651.408,657.288 662.051,632.264 662.051,601.442L662.051,154.677Z" style="fill:white;"/>
        </g>
        <g transform="matrix(0.243312,0,0,0.0866223,446.855,278.471)">
            <path d="M662.051,154.677C662.051,123.855 651.408,98.831 638.3,98.831L127.345,98.831C114.237,98.831 103.594,123.855 103.594,154.677L103.594,601.442C103.594,632.264 114.237,657.288 127.345,657.288L638.3,657.288C651.408,657.288 662.051,632.264 662.051,601.442L662.051,154.677Z" style="fill:white;"/>
        </g>
        <g transform="matrix(0.243312,0,0,0.0866223,818.972,703.833)">
            <path d="M662.051,154.677C662.051,123.855 651.408,98.831 638.3,98.831L127.345,98.831C114.237,98.831 103.594,123.855 103.594,154.677L103.594,601.442C103.594,632.264 114.237,657.288 127.345,657.288L638.3,657.288C651.408,657.288 662.051,632.264 662.051,601.442L662.051,154.677Z" style="fill:white;"/>
        </g>
        <g transform="matrix(0.243312,0,0,0.0866223,263.204,491.152)">
            <path d="M662.051,154.677C662.051,123.855 651.408,98.831 638.3,98.831L127.345,98.831C114.237,98.831 103.594,123.855 103.594,154.677L103.594,601.442C103.594,632.264 114.237,657.288 127.345,657.288L638.3,657.288C651.408,657.288 662.051,632.264 662.051,601.442L662.051,154.677Z" style="fill:white;"/>
        </g>
        <g transform="matrix(0.243312,0,0,0.0866223,630.505,491.152)">
            <path d="M662.051,154.677C662.051,123.855 651.408,98.831 638.3,98.831L127.345,98.831C114.237,98.831 103.594,123.855 103.594,154.677L103.594,601.442C103.594,632.264 114.237,657.288 127.345,657.288L638.3,657.288C651.408,657.288 662.051,632.264 662.051,601.442L662.051,154.677Z" style="fill:white;"/>
        </g>
    </g>
</svg>
