<?xml version="1.0" encoding="UTF-8" standalone="no"?>
<!DOCTYPE svg PUBLIC "-//W3C//DTD SVG 1.1//EN" "http://www.w3.org/Graphics/SVG/1.1/DTD/svg11.dtd">
<svg width="100%" height="100%" viewBox="0 0 1080 1080" version="1.1" xmlns="http://www.w3.org/2000/svg" xmlns:xlink="http://www.w3.org/1999/xlink" xml:space="preserve" xmlns:serif="http://www.serif.com/" style="fill-rule:evenodd;clip-rule:evenodd;stroke-linecap:round;stroke-linejoin:round;stroke-miterlimit:1.5;">
    <g transform="matrix(1.3192,0,0,1.3192,-38.0614,-30.2073)">
        <path d="M779.934,158.845C779.934,121.122 749.308,90.496 711.585,90.496L164.798,90.496C127.076,90.496 96.45,121.122 96.45,158.845L96.45,705.632C96.45,743.354 127.076,773.98 164.798,773.98L711.585,773.98C749.308,773.98 779.934,743.354 779.934,705.632L779.934,158.845Z"/>
    </g>
    <g transform="matrix(0.952928,0,0,0.627873,88.401,245.988)">
        <path d="M858.639,239.396C858.639,232.126 854.75,226.224 849.96,226.224L97.854,226.224C93.064,226.224 89.175,232.126 89.175,239.396L89.175,344.774C89.175,352.044 93.064,357.946 97.854,357.946L849.96,357.946C854.75,357.946 858.639,352.044 858.639,344.774L858.639,239.396Z" style="fill:white;"/>
    </g>
    <g transform="matrix(2.54618e-17,0.415823,-0.627873,3.84462e-17,828.819,113.691)">
        <path d="M858.639,239.396C858.639,232.126 849.727,226.224 838.749,226.224L109.064,226.224C98.087,226.224 89.175,232.126 89.175,239.396L89.175,344.774C89.175,352.044 98.087,357.946 109.064,357.946L838.749,357.946C849.727,357.946 858.639,352.044 858.639,344.774L858.639,239.396Z" style="fill:white;"/>
    </g>
    <g transform="matrix(1.23014,0,0,1.23014,-104.807,-153.232)">
        <path d="M709.457,382.484C709.457,371.492 700.533,362.568 689.541,362.568L530.213,362.568C519.221,362.568 510.297,371.492 510.297,382.484L510.297,541.812C510.297,552.804 519.221,561.728 530.213,561.728L689.541,561.728C700.533,561.728 709.457,552.804 709.457,541.812L709.457,382.484Z" style="stroke:white;stroke-width:48.77px;"/>
    </g>
    <g transform="matrix(-1.59881,1.81722e-16,-1.32354e-16,-1.23014,1841.45,1573.09)">
        <path d="M748.073,719.041L809.367,841.63L686.779,841.63L748.073,719.041Z" style="stroke:white;stroke-width:28.04px;"/>
    </g>
    <g transform="matrix(2.34136,0,0,4.16451,-317.745,-2445.5)">
        <path d="M522.929,781.526C522.929,776.53 515.714,772.473 506.827,772.473L225.861,772.473C216.974,772.473 209.759,776.53 209.759,781.526L209.759,799.632C209.759,804.628 216.974,808.684 225.861,808.684L506.827,808.684C515.714,808.684 522.929,804.628 522.929,799.632L522.929,781.526Z" style="fill:white;"/>
    </g>
</svg>
