<?xml version="1.0" encoding="UTF-8" standalone="no"?>
<!DOCTYPE svg PUBLIC "-//W3C//DTD SVG 1.1//EN" "http://www.w3.org/Graphics/SVG/1.1/DTD/svg11.dtd">
<svg width="100%" height="100%" viewBox="0 0 1080 1080" version="1.1" xmlns="http://www.w3.org/2000/svg" xmlns:xlink="http://www.w3.org/1999/xlink" xml:space="preserve" xmlns:serif="http://www.serif.com/" style="fill-rule:evenodd;clip-rule:evenodd;stroke-linecap:round;stroke-linejoin:round;stroke-miterlimit:1.5;">
    <g transform="matrix(1.90403,0,0,1.54303,-425.83,-26.0849)">
        <path d="M722.778,328.882C722.778,305.092 707.126,285.777 687.846,285.777L326.663,285.777C307.384,285.777 291.731,305.092 291.731,328.882L291.731,673.72C291.731,697.51 307.384,716.825 326.663,716.825L687.846,716.825C707.126,716.825 722.778,697.51 722.778,673.72L722.778,328.882Z"/>
    </g>
    <g transform="matrix(2.4109,0,0,1.71676,-592.085,-433.372)">
        <path d="M428.666,305.111C428.666,276.039 411.859,252.437 391.158,252.437C370.456,252.437 353.649,276.039 353.649,305.111L353.649,487.326C353.649,516.398 370.456,540 391.158,540C411.859,540 428.666,516.398 428.666,487.326L428.666,305.111Z"/>
    </g>
    <g transform="matrix(1.47625e-16,2.12939,-1.94372,1.05121e-16,1310.14,-753.056)">
        <path d="M428.666,293.528C428.666,270.849 411.859,252.437 391.158,252.437C370.456,252.437 353.649,270.849 353.649,293.528L353.649,498.909C353.649,521.588 370.456,540 391.158,540C411.859,540 428.666,521.588 428.666,498.909L428.666,293.528Z"/>
    </g>
    <g transform="matrix(-2.4109,2.60775e-16,-1.38532e-16,-0.999116,1685.64,539.523)">
        <path d="M428.666,342.945C428.666,292.992 411.859,252.437 391.158,252.437C370.456,252.437 353.649,292.992 353.649,342.945L353.649,449.491C353.649,499.444 370.456,540 391.158,540C411.859,540 428.666,499.444 428.666,449.491L428.666,342.945Z"/>
    </g>
    <g transform="matrix(2.10551,0,0,2.10551,-529.605,-974.083)">
        <circle cx="508.002" cy="768.168" r="53.274" style="fill:white;"/>
    </g>
    <g transform="matrix(1.32192,0,0,1.32192,-187.618,-286.632)">
        <path d="M613.191,933.423L487.657,933.423L519.04,744.363L581.807,744.363L613.191,933.423Z" style="fill:white;stroke:white;stroke-width:30.26px;"/>
    </g>
</svg>
