<?xml version="1.0" encoding="UTF-8" standalone="no"?>
<!DOCTYPE svg PUBLIC "-//W3C//DTD SVG 1.1//EN" "http://www.w3.org/Graphics/SVG/1.1/DTD/svg11.dtd">
<svg width="100%" height="100%" viewBox="0 0 1080 1080" version="1.1" xmlns="http://www.w3.org/2000/svg" xmlns:xlink="http://www.w3.org/1999/xlink" xml:space="preserve" xmlns:serif="http://www.serif.com/" style="fill-rule:evenodd;clip-rule:evenodd;stroke-linecap:round;stroke-linejoin:round;stroke-miterlimit:1.5;">
    <g transform="matrix(1.71584,0,0,0.8668,-428.435,71.9281)">
        <path d="M777.552,324.606L613.569,0L393.896,0C370.369,0 351.268,35.939 351.268,80.205L351.268,999.795C351.268,1044.06 370.369,1080 393.896,1080L734.924,1080C758.451,1080 777.552,1044.06 777.552,999.795L777.552,324.606Z" style="stroke:black;stroke-width:73.57px;"/>
    </g>
    <g transform="matrix(1.16715,0,0,1.16715,-182.545,-182.545)">
        <g transform="matrix(1.49153,0,0,1.49153,-118.846,-274.747)">
            <path d="M477.031,509.91C477.031,492.233 462.68,477.882 445.003,477.882L380.949,477.882C363.272,477.882 348.921,492.233 348.921,509.91L348.921,573.964C348.921,591.641 363.272,605.992 380.949,605.992L445.003,605.992C462.68,605.992 477.031,591.641 477.031,573.964L477.031,509.91Z" style="fill:white;"/>
        </g>
        <g transform="matrix(1.49153,0,0,0.466527,118.157,237.988)">
            <path d="M477.031,509.91C477.031,492.233 472.542,477.882 467.013,477.882L358.939,477.882C353.41,477.882 348.921,492.233 348.921,509.91L348.921,573.964C348.921,591.641 353.41,605.992 358.939,605.992L467.013,605.992C472.542,605.992 477.031,591.641 477.031,573.964L477.031,509.91Z" style="fill:white;"/>
        </g>
        <g transform="matrix(1.49153,0,0,0.466527,118.157,323.488)">
            <path d="M477.031,509.91C477.031,492.233 472.542,477.882 467.013,477.882L358.939,477.882C353.41,477.882 348.921,492.233 348.921,509.91L348.921,573.964C348.921,591.641 353.41,605.992 358.939,605.992L467.013,605.992C472.542,605.992 477.031,591.641 477.031,573.964L477.031,509.91Z" style="fill:white;"/>
        </g>
        <g transform="matrix(1.49153,0,0,0.466527,118.157,508.62)">
            <path d="M477.031,509.91C477.031,492.233 472.542,477.882 467.013,477.882L358.939,477.882C353.41,477.882 348.921,492.233 348.921,509.91L348.921,573.964C348.921,591.641 353.41,605.992 358.939,605.992L467.013,605.992C472.542,605.992 477.031,591.641 477.031,573.964L477.031,509.91Z" style="fill:white;"/>
        </g>
        <g transform="matrix(1.49153,0,0,0.466527,118.157,594.12)">
            <path d="M477.031,509.91C477.031,492.233 472.542,477.882 467.013,477.882L358.939,477.882C353.41,477.882 348.921,492.233 348.921,509.91L348.921,573.964C348.921,591.641 353.41,605.992 358.939,605.992L467.013,605.992C472.542,605.992 477.031,591.641 477.031,573.964L477.031,509.91Z" style="fill:white;"/>
        </g>
        <g transform="matrix(1.49153,0,0,1.49153,-118.846,-4.11594)">
            <path d="M477.031,509.91C477.031,492.233 462.68,477.882 445.003,477.882L380.949,477.882C363.272,477.882 348.921,492.233 348.921,509.91L348.921,573.964C348.921,591.641 363.272,605.992 380.949,605.992L445.003,605.992C462.68,605.992 477.031,591.641 477.031,573.964L477.031,509.91Z" style="fill:white;"/>
        </g>
    </g>
</svg>
