<?xml version="1.0" encoding="UTF-8" standalone="no"?>
<!DOCTYPE svg PUBLIC "-//W3C//DTD SVG 1.1//EN" "http://www.w3.org/Graphics/SVG/1.1/DTD/svg11.dtd">
<svg width="100%" height="100%" viewBox="0 0 1080 1080" version="1.1" xmlns="http://www.w3.org/2000/svg" xmlns:xlink="http://www.w3.org/1999/xlink" xml:space="preserve" xmlns:serif="http://www.serif.com/" style="fill-rule:evenodd;clip-rule:evenodd;stroke-linejoin:round;stroke-miterlimit:2;">
    <g transform="matrix(0.993973,0,0,0.787945,-61.5452,62.2029)">
        <path d="M1148.47,171.764C1148.47,111.796 1109.87,63.109 1062.33,63.109L148.052,63.109C100.513,63.109 61.918,111.796 61.918,171.764L61.918,1041C61.918,1100.97 100.513,1149.66 148.052,1149.66L1062.33,1149.66C1109.87,1149.66 1148.47,1100.97 1148.47,1041L1148.47,171.764Z"/>
        <clipPath id="_clip1">
            <path d="M1148.47,171.764C1148.47,111.796 1109.87,63.109 1062.33,63.109L148.052,63.109C100.513,63.109 61.918,111.796 61.918,171.764L61.918,1041C61.918,1100.97 100.513,1149.66 148.052,1149.66L1062.33,1149.66C1109.87,1149.66 1148.47,1100.97 1148.47,1041L1148.47,171.764Z"/>
        </clipPath>
        <g clip-path="url(#_clip1)">
            <g transform="matrix(0.788148,0,0,4.51309,179.593,-294.49)">
                <path d="M1080,130.029C1080,120.039 1043.19,111.929 997.842,111.929L82.158,111.929C36.814,111.929 -0,120.039 -0,130.029L-0,274.822C-0,284.812 36.814,292.922 82.158,292.922L997.842,292.922C1043.19,292.922 1080,284.812 1080,274.822L1080,130.029Z" style="fill:white;"/>
            </g>
        </g>
    </g>
    <g transform="matrix(1.03206,0,0,3.81517,-17.3117,-907.148)">
        <rect x="48.82" y="282.006" width="982.359" height="40.229"/>
    </g>
    <g transform="matrix(0.943203,0,0,0.943203,336.154,27.7114)">
        <path d="M182.563,394.166C182.563,378.636 169.954,366.027 154.424,366.027L98.146,366.027C82.615,366.027 70.007,378.636 70.007,394.166L70.007,450.444C70.007,465.975 82.615,478.583 98.146,478.583L154.424,478.583C169.954,478.583 182.563,465.975 182.563,450.444L182.563,394.166Z"/>
    </g>
    <g transform="matrix(0.943203,0,0,0.943203,505.622,27.7114)">
        <path d="M182.563,394.166C182.563,378.636 169.954,366.027 154.424,366.027L98.146,366.027C82.615,366.027 70.007,378.636 70.007,394.166L70.007,450.444C70.007,465.975 82.615,478.583 98.146,478.583L154.424,478.583C169.954,478.583 182.563,465.975 182.563,450.444L182.563,394.166Z"/>
    </g>
    <g transform="matrix(0.943203,0,0,0.943203,675.089,27.7114)">
        <path d="M182.563,394.166C182.563,378.636 169.954,366.027 154.424,366.027L98.146,366.027C82.615,366.027 70.007,378.636 70.007,394.166L70.007,450.444C70.007,465.975 82.615,478.583 98.146,478.583L154.424,478.583C169.954,478.583 182.563,465.975 182.563,450.444L182.563,394.166Z"/>
    </g>
    <g transform="matrix(0.943203,0,0,0.943203,166.686,202.026)">
        <path d="M182.563,394.166C182.563,378.636 169.954,366.027 154.424,366.027L98.146,366.027C82.615,366.027 70.007,378.636 70.007,394.166L70.007,450.444C70.007,465.975 82.615,478.583 98.146,478.583L154.424,478.583C169.954,478.583 182.563,465.975 182.563,450.444L182.563,394.166Z"/>
    </g>
    <g transform="matrix(0.943203,0,0,0.943203,336.154,202.026)">
        <path d="M182.563,394.166C182.563,378.636 169.954,366.027 154.424,366.027L98.146,366.027C82.615,366.027 70.007,378.636 70.007,394.166L70.007,450.444C70.007,465.975 82.615,478.583 98.146,478.583L154.424,478.583C169.954,478.583 182.563,465.975 182.563,450.444L182.563,394.166Z"/>
    </g>
    <g transform="matrix(0.943203,0,0,0.943203,505.622,202.026)">
        <path d="M182.563,394.166C182.563,378.636 169.954,366.027 154.424,366.027L98.146,366.027C82.615,366.027 70.007,378.636 70.007,394.166L70.007,450.444C70.007,465.975 82.615,478.583 98.146,478.583L154.424,478.583C169.954,478.583 182.563,465.975 182.563,450.444L182.563,394.166Z"/>
    </g>
    <g transform="matrix(0.943203,0,0,0.943203,675.089,202.026)">
        <path d="M182.563,394.166C182.563,378.636 169.954,366.027 154.424,366.027L98.146,366.027C82.615,366.027 70.007,378.636 70.007,394.166L70.007,450.444C70.007,465.975 82.615,478.583 98.146,478.583L154.424,478.583C169.954,478.583 182.563,465.975 182.563,450.444L182.563,394.166Z"/>
    </g>
    <g transform="matrix(0.943203,0,0,0.943203,166.686,376.34)">
        <path d="M182.563,394.166C182.563,378.636 169.954,366.027 154.424,366.027L98.146,366.027C82.615,366.027 70.007,378.636 70.007,394.166L70.007,450.444C70.007,465.975 82.615,478.583 98.146,478.583L154.424,478.583C169.954,478.583 182.563,465.975 182.563,450.444L182.563,394.166Z"/>
    </g>
    <g transform="matrix(0.943203,0,0,0.943203,336.154,376.34)">
        <path d="M182.563,394.166C182.563,378.636 169.954,366.027 154.424,366.027L98.146,366.027C82.615,366.027 70.007,378.636 70.007,394.166L70.007,450.444C70.007,465.975 82.615,478.583 98.146,478.583L154.424,478.583C169.954,478.583 182.563,465.975 182.563,450.444L182.563,394.166Z"/>
    </g>
    <g transform="matrix(0.943203,0,0,0.943203,505.622,376.34)">
        <path d="M182.563,394.166C182.563,378.636 169.954,366.027 154.424,366.027L98.146,366.027C82.615,366.027 70.007,378.636 70.007,394.166L70.007,450.444C70.007,465.975 82.615,478.583 98.146,478.583L154.424,478.583C169.954,478.583 182.563,465.975 182.563,450.444L182.563,394.166Z"/>
    </g>
    <g transform="matrix(1,0,0,1,-2.77764,5.77109)">
        <g transform="matrix(1.19041,0,0,1.19041,49.7836,-69.6941)">
            <circle cx="170.176" cy="236.988" r="49.415" style="fill:white;"/>
        </g>
        <g transform="matrix(1.19041,0,0,1.19041,630.613,-69.6941)">
            <circle cx="170.176" cy="236.988" r="49.415" style="fill:white;"/>
        </g>
    </g>
</svg>
