<?xml version="1.0" encoding="UTF-8" standalone="no"?>
<!DOCTYPE svg PUBLIC "-//W3C//DTD SVG 1.1//EN" "http://www.w3.org/Graphics/SVG/1.1/DTD/svg11.dtd">
<svg width="100%" height="100%" viewBox="0 0 1080 1080" version="1.1" xmlns="http://www.w3.org/2000/svg" xmlns:xlink="http://www.w3.org/1999/xlink" xml:space="preserve" xmlns:serif="http://www.serif.com/" style="fill-rule:evenodd;clip-rule:evenodd;stroke-linecap:round;stroke-linejoin:round;stroke-miterlimit:1.5;">
    <g transform="matrix(1.20589,0,0,1.12664,-88.87,-77.511)">
        <path d="M521.5,83C594.629,83 654,160.519 654,256C654,351.481 594.629,429 521.5,429C448.371,429 389,351.481 389,256C389,160.519 448.371,83 521.5,83ZM521.5,157.39C563.183,157.39 597.025,201.576 597.025,256C597.025,310.424 563.183,354.61 521.5,354.61C479.817,354.61 445.975,310.424 445.975,256C445.975,201.576 479.817,157.39 521.5,157.39Z"/>
    </g>
    <g transform="matrix(1,0,0,1.3285,0,-342.113)">
        <rect x="0" y="771.066" width="1080" height="81.934"/>
    </g>
    <g transform="matrix(1.1018,0,0,0.66125,-81.8668,288.921)">
        <path d="M777.552,296.229L690.127,0L438.694,0L351.268,296.229L351.268,999.795C351.268,1044.06 370.369,1080 393.896,1080L734.924,1080C758.451,1080 777.552,1044.06 777.552,999.795L777.552,296.229Z" style="stroke:black;stroke-width:110.06px;"/>
    </g>
    <g transform="matrix(0.799323,0,0,1.13127,101.06,-220.276)">
        <path d="M488,790.883C488,783.356 479.352,777.246 468.7,777.246L314.3,777.246C303.648,777.246 295,783.356 295,790.883L295,975.363C295,982.89 303.648,989 314.3,989L468.7,989C479.352,989 488,982.89 488,975.363L488,790.883Z" style="fill:white;"/>
    </g>
    <g transform="matrix(0.799323,0,0,1.13127,353.07,-220.276)">
        <path d="M488,790.883C488,783.356 479.352,777.246 468.7,777.246L314.3,777.246C303.648,777.246 295,783.356 295,790.883L295,975.363C295,982.89 303.648,989 314.3,989L468.7,989C479.352,989 488,982.89 488,975.363L488,790.883Z" style="fill:white;"/>
    </g>
</svg>
