<?xml version="1.0" encoding="UTF-8" standalone="no"?>
<!DOCTYPE svg PUBLIC "-//W3C//DTD SVG 1.1//EN" "http://www.w3.org/Graphics/SVG/1.1/DTD/svg11.dtd">
<svg width="100%" height="100%" viewBox="0 0 1080 1080" version="1.1" xmlns="http://www.w3.org/2000/svg" xmlns:xlink="http://www.w3.org/1999/xlink" xml:space="preserve" xmlns:serif="http://www.serif.com/" style="fill-rule:evenodd;clip-rule:evenodd;stroke-linejoin:round;stroke-miterlimit:2;">
    <g transform="matrix(0.946595,0,0,0.946595,28.8386,92.6187)">
        <path d="M832.326,1011.41L832.326,587.982L247.674,587.982L247.674,1011.41C247.674,1028.89 261.866,1043.09 279.347,1043.09L800.653,1043.09C818.134,1043.09 832.326,1028.89 832.326,1011.41Z"/>
    </g>
    <g transform="matrix(0.946595,0,0,1.15695,54.763,-5.13003)">
        <path d="M862.095,492.013C862.095,487.281 857.4,483.44 851.616,483.44L173.61,483.44C167.826,483.44 163.131,487.281 163.131,492.013L163.131,560.6C163.131,565.332 167.826,569.173 173.61,569.173L851.616,569.173C857.4,569.173 862.095,565.332 862.095,560.6L862.095,492.013Z"/>
    </g>
    <g transform="matrix(0.946595,0,0,0.946595,47.6892,67.2083)">
        <path d="M640.138,666.732C640.138,657.06 632.286,649.208 622.615,649.208L417.557,649.208C407.885,649.208 400.033,657.06 400.033,666.732L400.033,701.778C400.033,711.449 407.885,719.301 417.557,719.301L622.615,719.301C632.286,719.301 640.138,711.449 640.138,701.778L640.138,666.732Z" style="fill:white;"/>
    </g>
    <g transform="matrix(0.946595,0,0,0.946595,28.8386,-461.567)">
        <path d="M832.326,1011.41L832.326,587.982L247.674,587.982L247.674,1011.41C247.674,1028.89 261.866,1043.09 279.347,1043.09L800.653,1043.09C818.134,1043.09 832.326,1028.89 832.326,1011.41Z"/>
    </g>
    <g transform="matrix(0.946595,0,0,1.15695,54.763,-559.316)">
        <path d="M862.095,492.013C862.095,487.281 857.4,483.44 851.616,483.44L173.61,483.44C167.826,483.44 163.131,487.281 163.131,492.013L163.131,560.6C163.131,565.332 167.826,569.173 173.61,569.173L851.616,569.173C857.4,569.173 862.095,565.332 862.095,560.6L862.095,492.013Z"/>
    </g>
    <g transform="matrix(0.946595,0,0,0.946595,47.6892,-486.977)">
        <path d="M640.138,666.732C640.138,657.06 632.286,649.208 622.615,649.208L417.557,649.208C407.885,649.208 400.033,657.06 400.033,666.732L400.033,701.778C400.033,711.449 407.885,719.301 417.557,719.301L622.615,719.301C632.286,719.301 640.138,711.449 640.138,701.778L640.138,666.732Z" style="fill:white;"/>
    </g>
</svg>
