<?xml version="1.0" encoding="UTF-8" standalone="no"?>
<!DOCTYPE svg PUBLIC "-//W3C//DTD SVG 1.1//EN" "http://www.w3.org/Graphics/SVG/1.1/DTD/svg11.dtd">
<svg width="100%" height="100%" viewBox="0 0 1080 1080" version="1.1" xmlns="http://www.w3.org/2000/svg" xmlns:xlink="http://www.w3.org/1999/xlink" xml:space="preserve" xmlns:serif="http://www.serif.com/" style="fill-rule:evenodd;clip-rule:evenodd;stroke-linecap:round;stroke-linejoin:round;stroke-miterlimit:1.5;">
    <g transform="matrix(1,0,0,1,94.3942,6.55136)">
        <path d="M928.434,113.05C928.434,91.25 910.735,73.551 888.935,73.551L177.959,73.551C156.159,73.551 138.46,91.25 138.46,113.05L138.46,953.848C138.46,975.648 156.159,993.346 177.959,993.346L888.935,993.346C910.735,993.346 928.434,975.648 928.434,953.848L928.434,113.05Z"/>
    </g>
    <g transform="matrix(1.16715,0,0,1.16715,-90.6811,-240.687)">
        <g transform="matrix(1.49153,0,0,1.49153,-118.846,-274.747)">
            <path d="M477.031,509.91C477.031,492.233 462.68,477.882 445.003,477.882L380.949,477.882C363.272,477.882 348.921,492.233 348.921,509.91L348.921,573.964C348.921,591.641 363.272,605.992 380.949,605.992L445.003,605.992C462.68,605.992 477.031,591.641 477.031,573.964L477.031,509.91Z" style="fill:white;"/>
        </g>
        <g transform="matrix(1.49153,0,0,0.466527,118.157,237.988)">
            <path d="M477.031,509.91C477.031,492.233 472.542,477.882 467.013,477.882L358.939,477.882C353.41,477.882 348.921,492.233 348.921,509.91L348.921,573.964C348.921,591.641 353.41,605.992 358.939,605.992L467.013,605.992C472.542,605.992 477.031,591.641 477.031,573.964L477.031,509.91Z" style="fill:white;"/>
        </g>
        <g transform="matrix(1.49153,0,0,0.466527,118.157,323.488)">
            <path d="M477.031,509.91C477.031,492.233 472.542,477.882 467.013,477.882L358.939,477.882C353.41,477.882 348.921,492.233 348.921,509.91L348.921,573.964C348.921,591.641 353.41,605.992 358.939,605.992L467.013,605.992C472.542,605.992 477.031,591.641 477.031,573.964L477.031,509.91Z" style="fill:white;"/>
        </g>
        <g transform="matrix(1.49153,0,0,0.466527,118.157,508.62)">
            <path d="M477.031,509.91C477.031,492.233 472.542,477.882 467.013,477.882L358.939,477.882C353.41,477.882 348.921,492.233 348.921,509.91L348.921,573.964C348.921,591.641 353.41,605.992 358.939,605.992L467.013,605.992C472.542,605.992 477.031,591.641 477.031,573.964L477.031,509.91Z" style="fill:white;"/>
        </g>
        <g transform="matrix(1.49153,0,0,0.466527,118.157,594.12)">
            <path d="M477.031,509.91C477.031,492.233 472.542,477.882 467.013,477.882L358.939,477.882C353.41,477.882 348.921,492.233 348.921,509.91L348.921,573.964C348.921,591.641 353.41,605.992 358.939,605.992L467.013,605.992C472.542,605.992 477.031,591.641 477.031,573.964L477.031,509.91Z" style="fill:white;"/>
        </g>
        <g transform="matrix(1.49153,0,0,1.49153,-118.846,-4.11594)">
            <path d="M477.031,509.91C477.031,492.233 462.68,477.882 445.003,477.882L380.949,477.882C363.272,477.882 348.921,492.233 348.921,509.91L348.921,573.964C348.921,591.641 363.272,605.992 380.949,605.992L445.003,605.992C462.68,605.992 477.031,591.641 477.031,573.964L477.031,509.91Z" style="fill:white;"/>
        </g>
    </g>
    <g transform="matrix(0.828125,0,0,0.994452,17.9938,3.21236)">
        <path d="M47.309,290.37L116.363,190.063L185.416,290.37L185.416,898.946C185.416,937.057 154.474,967.999 116.363,967.999C78.251,967.999 47.309,937.057 47.309,898.946L47.309,290.37Z" style="stroke:black;stroke-width:23.5px;"/>
    </g>
</svg>
