<?xml version="1.0" encoding="UTF-8" standalone="no"?>
<!DOCTYPE svg PUBLIC "-//W3C//DTD SVG 1.1//EN" "http://www.w3.org/Graphics/SVG/1.1/DTD/svg11.dtd">
<svg width="100%" height="100%" viewBox="0 0 1080 1080" version="1.1" xmlns="http://www.w3.org/2000/svg" xmlns:xlink="http://www.w3.org/1999/xlink" xml:space="preserve" xmlns:serif="http://www.serif.com/" style="fill-rule:evenodd;clip-rule:evenodd;stroke-linecap:round;stroke-linejoin:round;stroke-miterlimit:1.5;">
    <g transform="matrix(1.20249,0,0,1.20249,-109.139,-109.554)">
        <g transform="matrix(0.707107,-0.707107,0.707107,0.707107,-393.783,369.892)">
            <path d="M632.131,270.039C667.76,297.617 690.713,340.792 690.713,389.287C690.713,472.468 623.181,540 540,540C456.819,540 389.287,472.468 389.287,389.287C389.287,340.792 412.24,297.617 447.869,270.039L447.869,407.499L540,460.691L632.131,407.499L632.131,270.039Z" style="fill:rgb(6,0,0);stroke:black;stroke-width:27.34px;"/>
        </g>
        <g transform="matrix(-0.707107,0.707107,-0.707107,-0.707107,1473.78,710.108)">
            <path d="M632.131,270.039C667.76,297.617 690.713,340.792 690.713,389.287C690.713,472.468 623.181,540 540,540C456.819,540 389.287,472.468 389.287,389.287C389.287,340.792 412.24,297.617 447.869,270.039L447.869,407.499L540,460.691L632.131,407.499L632.131,270.039Z" style="fill:rgb(6,0,0);stroke:black;stroke-width:27.34px;"/>
        </g>
        <g transform="matrix(0.707107,-0.707107,2.93345,2.93345,-1539.51,-709.824)">
            <rect x="513.266" y="497.76" width="146.825" height="146.825" style="fill:rgb(6,0,0);stroke:black;stroke-width:9.06px;"/>
        </g>
    </g>
    <g transform="matrix(1.50104,0,0,1.50104,-269.091,-272.027)">
        <g transform="matrix(0.707107,0.707107,-1.17457,1.17457,1120.96,-297.385)">
            <path d="M263.322,690.677C263.322,677.054 244.951,665.994 222.322,665.994L140.323,665.994C117.695,665.994 99.324,677.054 99.324,690.677L99.324,837.778C99.324,851.4 117.695,862.46 140.323,862.46L222.322,862.46C244.951,862.46 263.322,851.4 263.322,837.778L263.322,690.677Z" style="fill:rgb(6,0,0);stroke:black;stroke-width:15.97px;"/>
        </g>
        <g transform="matrix(0.707107,0.707107,-0.525215,0.525215,806.006,17.5647)">
            <path d="M160.42,238.714L169.718,238.714C163.314,238.714 158.114,243.914 158.114,250.319L158.114,609.068C158.114,615.472 163.314,620.672 169.718,620.672L192.927,620.672C199.332,620.672 204.532,615.472 204.532,609.068L204.532,250.319C204.532,243.914 199.332,238.714 192.927,238.714L202.226,238.714C213.606,238.714 222.845,229.475 222.845,218.095L222.845,176.857C222.845,165.476 213.606,156.237 202.226,156.237L160.42,156.237C149.04,156.237 139.801,165.476 139.801,176.857L139.801,218.095C139.801,229.475 149.04,238.714 160.42,238.714Z" style="fill:rgb(6,0,0);stroke:black;stroke-width:24.86px;"/>
        </g>
    </g>
</svg>
