<?xml version="1.0" encoding="UTF-8" standalone="no"?>
<!DOCTYPE svg PUBLIC "-//W3C//DTD SVG 1.1//EN" "http://www.w3.org/Graphics/SVG/1.1/DTD/svg11.dtd">
<svg width="100%" height="100%" viewBox="0 0 1080 1080" version="1.1" xmlns="http://www.w3.org/2000/svg" xmlns:xlink="http://www.w3.org/1999/xlink" xml:space="preserve" xmlns:serif="http://www.serif.com/" style="fill-rule:evenodd;clip-rule:evenodd;stroke-linecap:round;stroke-linejoin:round;stroke-miterlimit:1.5;">
    <g transform="matrix(1.88363,0,0,1.24084,-429.105,37.7497)">
        <path d="M727.977,463.624L301.001,463.624L407.745,302.419L621.233,302.419L727.977,463.624Z" style="stroke:black;stroke-width:75.24px;"/>
    </g>
    <g transform="matrix(-1.62639,1.52629e-16,-4.51135e-16,-2.8229,1403.33,3034.87)">
        <path d="M530.827,718.503L778.082,857.924L283.573,857.924L530.827,718.503Z" style="stroke:black;stroke-width:52.09px;"/>
    </g>
    <g transform="matrix(-2.74353,2.61691e-16,-2.90853e-16,-1.84982,1183.99,2314.95)">
        <path d="M234.729,707.281L301.443,920.042L168.015,920.042L234.729,707.281Z" style="fill:white;"/>
    </g>
    <g transform="matrix(0.857336,0,0,1.24084,98.9099,37.7497)">
        <path d="M727.977,463.624L301.001,463.624L407.745,302.419L621.233,302.419L727.977,463.624Z" style="fill:white;"/>
    </g>
    <g transform="matrix(0.815904,0,0,0.635487,99.4118,366.641)">
        <path d="M764.329,387.722L315.671,387.722" style="fill:none;stroke:black;stroke-width:164.1px;"/>
    </g>
    <g transform="matrix(0.853094,0,0,0.853094,357.589,-601.757)">
        <path d="M213.823,791.416L254.079,857.249L325.45,894.381L254.079,931.512L213.823,997.345L173.568,931.512L102.196,894.381L173.568,857.249L213.823,791.416Z" style="stroke:black;stroke-width:70.33px;"/>
    </g>
    <g transform="matrix(0.853094,0,0,0.853094,722.968,-512.861)">
        <path d="M213.823,791.416L254.079,857.249L325.45,894.381L254.079,931.512L213.823,997.345L173.568,931.512L102.196,894.381L173.568,857.249L213.823,791.416Z" style="stroke:black;stroke-width:70.33px;"/>
    </g>
    <g transform="matrix(0.853094,0,0,0.853094,-7.79021,-512.861)">
        <path d="M213.823,791.416L254.079,857.249L325.45,894.381L254.079,931.512L213.823,997.345L173.568,931.512L102.196,894.381L173.568,857.249L213.823,791.416Z" style="stroke:black;stroke-width:70.33px;"/>
    </g>
</svg>
