<?xml version="1.0" encoding="UTF-8" standalone="no"?>
<!DOCTYPE svg PUBLIC "-//W3C//DTD SVG 1.1//EN" "http://www.w3.org/Graphics/SVG/1.1/DTD/svg11.dtd">
<svg width="100%" height="100%" viewBox="0 0 1080 1080" version="1.1" xmlns="http://www.w3.org/2000/svg" xmlns:xlink="http://www.w3.org/1999/xlink" xml:space="preserve" xmlns:serif="http://www.serif.com/" style="fill-rule:evenodd;clip-rule:evenodd;stroke-linecap:round;stroke-linejoin:round;stroke-miterlimit:1.5;">
    <g transform="matrix(0.954449,0,0,0.769696,-4.09922,186.159)">
        <rect x="226.24" y="257.2" width="687.652" height="687.652" style="fill:white;"/>
        <path d="M1039.62,257.2C1039.62,171.095 983.329,101.294 913.892,101.294L226.24,101.294C156.803,101.294 100.513,171.095 100.513,257.2L100.513,944.851C100.513,1030.95 156.803,1100.76 226.24,1100.76L913.892,1100.76C983.329,1100.76 1039.62,1030.95 1039.62,944.851L1039.62,257.2ZM913.892,257.2L226.24,257.2L226.24,944.851L913.892,944.851L913.892,257.2Z"/>
    </g>
    <g transform="matrix(1.03907,0,0,1.33378,1.79376,1.6391)">
        <path d="M974.024,258.39L61.918,258.39L289.945,73.826L745.998,73.826L974.024,258.39Z" style="stroke:black;stroke-width:100.37px;"/>
    </g>
    <g id="settings-icon.afdesign" transform="matrix(0.395533,0,0,0.395533,540,650.844)">
        <g transform="matrix(1,0,0,1,-540,-540)">
            <g transform="matrix(1,0,0,1,74.0319,66.5663)">
                <circle cx="465.968" cy="473.434" r="181.383" style="fill:white;"/>
            </g>
            <g transform="matrix(2.14072,0,0,2.14072,-752.36,-379.963)">
                <path d="M637.731,213.362C615.179,209.894 592.23,209.894 569.678,213.362C560.317,230.442 557.12,248.608 560.089,267.858C538.567,273.487 518.338,283.228 500.519,296.545C487.319,282.222 471.124,273.395 451.933,270.065C435.161,285.534 420.852,303.477 409.503,323.271C417.02,341.239 429.23,355.064 446.131,364.746C437.113,385.081 432.117,406.971 431.418,429.205C411.99,430.595 394.992,437.753 380.423,450.681C382.06,473.439 387.166,495.813 395.566,517.028C414.301,522.353 432.722,521.428 450.829,514.25C461.106,533.98 475.105,551.533 492.053,565.943C481.026,581.998 476.024,599.752 477.047,619.202C495.861,632.112 516.538,642.069 538.361,648.73C554.206,637.402 564.968,622.423 570.646,603.791C592.478,608.058 614.931,608.058 636.763,603.791C642.441,622.423 653.203,637.402 669.048,648.73C690.871,642.069 711.548,632.112 730.362,619.202C731.385,599.752 726.383,581.998 715.356,565.943C732.304,551.533 746.303,533.98 756.58,514.25C774.687,521.428 793.108,522.353 811.843,517.028C820.243,495.813 825.349,473.439 826.986,450.681C812.417,437.753 795.419,430.595 775.991,429.205C775.292,406.971 770.296,385.081 761.278,364.746C778.179,355.064 790.389,341.239 797.906,323.271C786.557,303.477 772.248,285.534 755.476,270.065C736.285,273.395 720.09,282.222 706.89,296.545C689.071,283.228 668.842,273.487 647.32,267.858C650.289,248.608 647.092,230.442 637.731,213.362ZM603.705,345.076C653.125,345.076 693.248,385.199 693.248,434.62C693.248,484.04 653.125,524.163 603.705,524.163C554.284,524.163 514.161,484.04 514.161,434.62C514.161,385.199 554.284,345.076 603.705,345.076Z" style="stroke:black;stroke-width:37.37px;"/>
            </g>
        </g>
    </g>
</svg>
